<?xml version="1.0" standalone="no"?>
<!DOCTYPE svg PUBLIC "-//W3C//DTD SVG 1.1//EN" "http://www.w3.org/Graphics/SVG/1.1/DTD/svg11.dtd" >
<svg xmlns="http://www.w3.org/2000/svg">
<metadata></metadata>
<defs>
<font id="oceaniaregular" horiz-adv-x="1024" >
<font-face units-per-em="2048" ascent="1638" descent="-410" />
<missing-glyph horiz-adv-x="425" />
<glyph horiz-adv-x="2048" />
<glyph horiz-adv-x="2048" />
<glyph unicode="&#xd;" horiz-adv-x="2048" />
<glyph unicode=" "  horiz-adv-x="425" />
<glyph unicode="&#x09;" horiz-adv-x="425" />
<glyph unicode="&#xa0;" horiz-adv-x="425" />
<glyph unicode="!" horiz-adv-x="616" d="M225 72q0 37 23 57.5t61 20.5q36 0 59 -20t23 -58t-22.5 -59t-61.5 -21q-36 0 -59 21.5t-23 58.5zM254 954v586h113v-586l-15 -520h-86z" />
<glyph unicode="&#x22;" horiz-adv-x="778" d="M172 1542h133l-20 -506h-92zM471 1542h135l-18 -506h-96z" />
<glyph unicode="#" horiz-adv-x="1144" d="M86 348l20 107h197l86 477h-194l20 104h193l57 318h86l-57 -318h284l58 318h88l-58 -318h193l-21 -104h-190l-86 -477h188l-20 -107h-187l-59 -348h-88l61 348h-284l-62 -348h-86l60 348h-199zM391 455h285l84 477h-283z" />
<glyph unicode="$" horiz-adv-x="1144" d="M143 1133q14 160 119 249t279 88q84 3 161 -18l21 86h94l-31 -115q96 -29 162 -18l-18 -100q-77 -5 -168 20l-131 -518q129 -30 168 -45q113 -42 163 -145.5t29 -237.5q-25 -154 -152.5 -240t-312.5 -73q-25 2 -77 10l-5 -15l-22 -84h-92l28 119q-17 4 -47 13t-46 13.5 t-39 8t-42 2.5l6 109q27 -2 56.5 -8t46.5 -11.5t48.5 -16t41.5 -13.5l135 536q-90 16 -158 37q-105 38 -166.5 132.5t-50.5 234.5zM254 1137q-26 -245 207 -297q11 -2 24.5 -4.5t30.5 -6.5t27 -6l135 531q-83 25 -143 20q-127 -3 -198.5 -67t-82.5 -170zM471 166 q50 -8 78 -8q61 0 115 12.5t102 39t80.5 76t42.5 117.5q13 86 -16 151t-77.5 97.5t-111.5 46.5q-6 2 -76 17z" />
<glyph unicode="%" horiz-adv-x="1779" d="M131 913q0 -156 75.5 -256t211.5 -100q137 0 215 103t78 253v105q0 155 -78.5 255.5t-214.5 100.5q-93 0 -159.5 -50.5t-97 -129t-30.5 -174.5v-107zM225 893v145q0 119 55 187.5t138 68.5q88 0 143 -66.5t55 -189.5v-145q0 -67 -18.5 -118.5t-49 -79.5t-64.5 -42 t-70 -14q-33 0 -64.5 14t-60.5 42t-46.5 79.5t-17.5 118.5zM573 0l535 1354h92l-532 -1354h-95zM1067 338q0 -156 75.5 -256t211.5 -100q137 0 215 103t78 253v104q0 155 -78.5 256t-214.5 101q-93 0 -159.5 -51t-97 -129.5t-30.5 -174.5v-106zM1161 317v146q0 119 55 187.5 t138 68.5q88 0 143 -66.5t55 -189.5v-146q0 -67 -18.5 -118.5t-49 -79.5t-64.5 -42t-70 -14q-33 0 -64.5 14t-60.5 42t-46.5 79.5t-17.5 118.5z" />
<glyph unicode="&#x26;" horiz-adv-x="1327" d="M63 389q0 120 62.5 228.5t175.5 179.5q29 18 96 55q-29 29 -53 59q-123 152 -123 310q0 135 99 226t237 91q137 0 232.5 -90.5t97.5 -218.5q0 -130 -70 -219q-54 -71 -172 -144q-40 -24 -76 -43q49 -57 93.5 -107.5t117.5 -131t138 -152.5q23 46 46.5 124t30.5 95 q23 55 46.5 93t60.5 69q45 38 104 51q49 12 94 2v-104q-45 4 -71.5 -3t-54.5 -28q-47 -38 -82 -121q-13 -30 -43 -110t-50 -131q-1 -2 -3 -6.5t-3 -6.5q46 -51 116.5 -129.5t122 -135.5t81.5 -91h-150q-7 8 -94 106t-137 152q-90 -131 -213 -203.5t-250 -74.5 q-183 0 -299 131q-110 125 -107 278zM174 389q0 -121 80 -207q84 -96 215 -96q106 0 213 61.5t180 180.5q-49 55 -143 163t-164 188t-86 97q-65 -33 -113 -65q-89 -56 -135.5 -143t-46.5 -179zM332 1221q1 -69 24.5 -125.5t69.5 -114.5q14 -19 68 -78q37 18 96 53 q89 54 139 121q45 57 45 152q0 84 -61 145q-62 62 -156 62q-95 0 -160 -62t-65 -153z" />
<glyph unicode="'" horiz-adv-x="479" d="M172 1542h135l-20 -506h-94z" />
<glyph unicode="(" horiz-adv-x="675" d="M166 606q0 237 75.5 465.5t225.5 429.5h113q-299 -409 -299 -895q0 -479 299 -891h-113q-148 198 -224.5 426.5t-76.5 464.5z" />
<glyph unicode=")" horiz-adv-x="675" d="M96 -285q299 413 299 893q0 477 -299 893h111q149 -199 226 -428t77 -465q0 -235 -76.5 -463.5t-226.5 -429.5h-111z" />
<glyph unicode="*" horiz-adv-x="847" d="M41 1270l33 96l307 -111l-8 326h104q-6 -217 -8 -326l305 111l33 -96l-315 -94l202 -261l-82 -61l-188 268l-186 -268l-82 61l202 261z" />
<glyph unicode="+" horiz-adv-x="1038" d="M90 492v102h379v442h102v-442h377v-102h-377v-441h-102v441h-379z" />
<glyph unicode="," horiz-adv-x="530" d="M80 -289q60 44 96 77t54 65t23 59t5 70v24h-31q-28 0 -44.5 18t-16.5 50q0 36 24.5 59t63.5 23q50 0 81.5 -37.5t31.5 -110.5q0 -118 -45 -197t-170 -169z" />
<glyph unicode="-" horiz-adv-x="512" d="M49 494v100h414v-100h-414z" />
<glyph unicode="." horiz-adv-x="530" d="M178 74q0 38 24.5 61t61.5 23t62.5 -22t25.5 -62q0 -39 -24.5 -62.5t-63.5 -23.5q-37 0 -61.5 23.5t-24.5 62.5z" />
<glyph unicode="/" horiz-adv-x="626" d="M-35 -285l633 1786h107l-631 -1786h-109z" />
<glyph unicode="0" horiz-adv-x="1169" d="M145 543v207q0 89 17 169.5t52 148.5t85.5 117t122 77t156.5 28q140 0 239.5 -74.5t146 -194.5t46.5 -271v-207q0 -112 -27.5 -209t-80 -171.5t-136 -117.5t-188.5 -43q-106 0 -190 43t-136.5 117.5t-79.5 171.5t-27 209zM256 559q0 -128 34.5 -229.5t108.5 -164.5 t179 -63q154 0 237.5 129.5t83.5 327.5v174q0 198 -83.5 327.5t-237.5 129.5q-105 0 -179 -63t-108.5 -164.5t-34.5 -229.5v-174z" />
<glyph unicode="1" horiz-adv-x="776" d="M119 991l323 295l90 -43v-1243h-108v1145l-248 -240z" />
<glyph unicode="2" horiz-adv-x="1144" d="M170 1047q195 260 418 260q98 2 181 -37.5t131.5 -107t68 -149t-5.5 -172t-93 -167.5q-67 -76 -274.5 -282.5t-278.5 -291.5h680v-100h-788l-27 115q84 95 303 315.5t308 323.5q57 66 68 147.5t-18.5 148.5t-97.5 112.5t-157 45.5q-44 0 -103.5 -24t-101.5 -60 q-13 -12 -26.5 -25.5t-22.5 -23t-22.5 -26.5t-19 -23.5t-21 -27t-19.5 -25.5z" />
<glyph unicode="3" horiz-adv-x="1230" d="M176 12q65 -85 195 -156t256 -71q190 0 300.5 111.5t110.5 328.5q0 198 -140 311q-23 18 -67 42q80 53 130.5 135.5t50.5 179.5q0 198 -105 308t-284 110q-56 0 -112.5 -14t-94.5 -30t-87.5 -47.5t-67.5 -45t-57 -45.5q-3 -2 -5 -3.5t-4.5 -3.5t-4.5 -4l70 -86 q103 85 156 117q107 63 207 63q126 0 202 -85t76 -234q0 -123 -83 -195.5t-204 -72.5h-186v-103h193q137 0 221 -78.5t84 -224.5q0 -87 -24 -152.5t-66 -103t-93.5 -56t-111.5 -18.5q-101 0 -205 55.5t-180 147.5z" />
<glyph unicode="4" horiz-adv-x="1212" d="M133 268q26 53 100.5 191t187 344.5t169.5 312.5q4 7 9.5 16.5t15 24.5t16.5 25q20 26 76 72.5t77 72.5h146q-21 -23 -101 -97.5t-108 -111.5q-30 -45 -35 -55q-362 -671 -432 -807h545v473h108v-473h209v-98h-209v-373h-108v373h-623z" />
<glyph unicode="5" horiz-adv-x="1216" d="M193 0q183 -203 425 -203q95 0 175 41.5t133 111t82.5 160.5t29.5 189q0 90 -25.5 175.5t-72 153.5t-119 109t-159.5 41q-107 0 -192 -41t-138 -102v584h629l20 98h-758v-758q26 -11 64 -29.5t45 -21.5q124 168 313 168q72 0 127 -31.5t87.5 -86t49 -119.5t17.5 -138 q2 -184 -82.5 -291.5t-231.5 -107.5q-196 0 -338 174z" />
<glyph unicode="6" horiz-adv-x="1271" d="M190 455q0 -211 123 -342t316 -131q207 0 326 128.5t118 354.5q-1 101 -27 189t-76.5 157.5t-132.5 109.5t-186 40q-122 0 -214.5 -49t-137.5 -134v168q0 122 27 213.5t75 146t103 84t121 40.5q193 30 331 -82l48 98q-54 45 -149.5 72t-201.5 18q-218 -18 -340.5 -164.5 t-122.5 -425.5v-491zM301 461q0 189 94.5 291t245.5 102q150 0 232.5 -100.5t82.5 -298.5q0 -173 -83.5 -272t-233.5 -99q-147 0 -241 100t-97 277z" />
<glyph unicode="7" horiz-adv-x="1159" d="M94 1061q55 99 94 162q61 96 185 96h643q2 -6 11.5 -31t14.5 -41l-647 -1446h-123l641 1418h-540q-38 -2 -56 -10t-38 -35q-27 -41 -93 -170z" />
<glyph unicode="8" horiz-adv-x="1214" d="M172 395q1 -190 122 -292.5t339 -102.5q204 0 323 104.5t119 290.5q0 293 -225 400q88 55 139 142.5t51 199.5q0 106 -46.5 196t-141 146.5t-219.5 56.5q-100 0 -182 -33t-134.5 -88t-81 -126.5t-28.5 -149.5q0 -215 190 -344q-223 -112 -225 -400zM283 412 q0 103 44.5 178.5t114 111t152.5 35.5h68q132 0 217.5 -84t85.5 -235q0 -89 -24 -152t-70 -98.5t-104 -51.5t-134 -16q-167 0 -258.5 71.5t-91.5 240.5zM317 1147q0 129 90.5 208t225.5 79q136 0 216.5 -77t80.5 -210q0 -80 -24 -142t-64 -97t-85 -52.5t-93 -17.5h-64 q-50 0 -98 17.5t-90.5 52.5t-68.5 97t-26 142z" />
<glyph unicode="9" horiz-adv-x="1239" d="M176 846q1 -101 27 -189t76.5 -157.5t132.5 -109.5t186 -40q123 0 215.5 47.5t136.5 132.5v-165q0 -99 -18.5 -178.5t-48.5 -132t-73 -90.5t-88 -57t-97 -28q-195 -30 -332 84l-47 -100q53 -44 148 -70.5t202 -19.5q218 18 340.5 164.5t122.5 427.5v489q0 211 -122.5 342 t-315.5 131q-207 0 -326.5 -128.5t-118.5 -352.5zM293 854q0 173 83.5 273t233.5 100q147 0 241 -101t97 -278q0 -189 -94.5 -291t-245.5 -102q-150 0 -232.5 101t-82.5 298z" />
<glyph unicode=":" horiz-adv-x="530" d="M178 74q0 38 24.5 61t61.5 23t62.5 -22t25.5 -62q0 -39 -24.5 -62.5t-63.5 -23.5q-37 0 -61.5 23.5t-24.5 62.5zM178 977q0 38 24.5 61t61.5 23t62.5 -22t25.5 -62q0 -39 -24.5 -62.5t-63.5 -23.5q-37 0 -61.5 23.5t-24.5 62.5z" />
<glyph unicode=";" horiz-adv-x="530" d="M80 -289q60 44 96 77t54 65t23 59t5 70v24h-31q-28 0 -44.5 18t-16.5 50q0 36 24.5 59t63.5 23q50 0 81.5 -37.5t31.5 -110.5q0 -118 -45 -197t-170 -169zM178 977q0 38 24.5 61t61.5 23t62.5 -22t25.5 -62q0 -39 -24.5 -62.5t-63.5 -23.5q-37 0 -61.5 23.5t-24.5 62.5z " />
<glyph unicode="&#x3c;" horiz-adv-x="1038" d="M197 543l524 544h121v-16l-506 -524l506 -531v-16h-121z" />
<glyph unicode="=" horiz-adv-x="1038" d="M125 258v100h790v-100h-790zM125 745v101h790v-101h-790z" />
<glyph unicode="&#x3e;" horiz-adv-x="1038" d="M197 0v16l503 525l-503 530v16h118l527 -544l-527 -543h-118z" />
<glyph unicode="?" horiz-adv-x="927" d="M135 1393q60 59 136.5 94.5t151.5 44.5t147 -7t125.5 -54t84.5 -103t27 -147q-2 -48 -25 -93t-57.5 -81.5t-76 -72.5t-82 -72.5t-74.5 -74.5t-55.5 -85.5t-22.5 -98.5l-2 -209h-99l-6 209q-5 64 19.5 126t66 109t92 96t95 88t76 84.5t34.5 86.5q4 51 -13 91.5t-50.5 64 t-77.5 36.5t-95 8.5t-101.5 -21.5t-100 -51.5t-86.5 -82.5q-4 19 -15.5 59t-15.5 56zM283 72q0 36 23.5 57t60.5 21q36 0 59 -20t23 -58t-22.5 -59t-61.5 -21q-36 0 -59 21.5t-23 58.5z" />
<glyph unicode="@" horiz-adv-x="1951" d="M154 500q0 239 65.5 432t184 322t284.5 198.5t365 69.5q350 0 547.5 -180t197.5 -537q0 -143 -41 -265.5t-108 -203t-149.5 -125.5t-166.5 -45q-145 0 -176 110h-8q-108 -63 -173 -86.5t-122 -23.5q-116 0 -185 71t-69 214q0 132 34 244.5t91.5 188t133 118t159.5 42.5 q123 0 250 -61l10 47h98l-114 -647q-7 -44 -7 -53q0 -39 23 -58.5t76 -19.5q61 0 122.5 40t111.5 109.5t81 175t31 226.5q0 305 -159 468t-492 163q-244 0 -425.5 -116.5t-277.5 -327.5t-96 -490q0 -713 627 -713q72 0 168.5 18t168.5 45l15 -90q-180 -61 -359 -61 q-351 0 -533.5 200.5t-182.5 600.5zM709 453q0 -97 47.5 -148t124.5 -51q48 0 109.5 23t162.5 81l98 545q-115 55 -219 55q-132 0 -227.5 -143t-95.5 -362z" />
<glyph unicode="A" horiz-adv-x="1292" d="M68 0l522 1538h115l516 -1538h-117q-44 135 -174 512h-572l-174 -512h-116zM391 614h510l-254 752z" />
<glyph unicode="B" horiz-adv-x="1320" d="M246 0h532q196 0 308 118q110 115 110 282v6q-1 146 -78.5 245t-187.5 129q92 42 152.5 139.5t60.5 227.5q0 102 -33.5 179.5t-92.5 123t-132.5 68t-159.5 22.5h-479v-1540zM356 98v621h408q149 0 231 -87t82 -226q0 -138 -80 -223t-233 -85h-408zM356 823v619h371 q151 0 225 -76t74 -219q1 -77 -32 -150.5t-98.5 -123.5t-147.5 -50h-392z" />
<glyph unicode="C" horiz-adv-x="1198" d="M162 567q0 -261 141.5 -425.5t370.5 -164.5q275 0 452 166l-61 99q-160 -157 -387 -160h-3q-178 0 -288 137q-111 138 -113 346v391q0 207 124.5 348.5t289.5 141.5q111 0 190.5 -33t155.5 -106l70 88q-66 65 -180 109q-105 40 -224 40h-22q-140 -4 -258.5 -82 t-188 -211.5t-69.5 -292.5v-391z" />
<glyph unicode="D" horiz-adv-x="1415" d="M246 0h514q155 0 268 77.5t169 209t56 301.5v352q0 129 -31.5 237t-92 189t-155.5 126.5t-214 45.5h-514v-1538zM356 98v1340h400q178 0 279 -135.5t106 -362.5v-352q0 -228 -99 -359t-286 -131h-400z" />
<glyph unicode="E" horiz-adv-x="1251" d="M246 0h860l-14 106h-734v609h666v102h-666v619h734v104h-846v-1540z" />
<glyph unicode="F" horiz-adv-x="1159" d="M246 0h110v756h654v100h-654v582h697v104h-807v-1542z" />
<glyph unicode="G" horiz-adv-x="1413" d="M162 588v350q0 135 41.5 250.5t112.5 194t165.5 123t200.5 44.5q251 0 455 -200l-70 -88q-167 186 -383 186q-178 0 -294 -144.5t-116 -365.5v-350q0 -249 114.5 -376.5t313.5 -127.5q168 0 271 89.5t102 272.5v244h-383l-20 103h512v-351q0 -112 -38.5 -202.5 t-104.5 -146.5t-151 -86t-181 -30q-116 0 -214.5 37.5t-173 111t-117 192t-42.5 270.5z" />
<glyph unicode="H" horiz-adv-x="1497" d="M246 0h112v705h779v-705h110v1542h-110v-737h-779v735h-112v-1540z" />
<glyph unicode="I" horiz-adv-x="606" d="M246 0h110v1540h-110v-1540z" />
<glyph unicode="J" horiz-adv-x="602" d="M37 -156v-98q67 -19 118 -19q18 0 33 2q62 9 100.5 57.5t55 118.5t16.5 167v1468h-106q0 -1411 2 -1468q0 -174 -49 -222q-26 -26 -73 -26q-41 0 -97 20z" />
<glyph unicode="K" horiz-adv-x="1376" d="M246 0v1540h110v-977q152 187 432 537.5t349 439.5h133q-264 -329 -537 -684q28 -51 94 -174t98.5 -182t88.5 -156.5t110 -185.5q26 -38 74 -50q19 -5 36 -6q29 0 56 13l4 -107q-39 -17 -79 -17q-32 0 -65 11q-74 24 -118 94q-165 263 -377 674q-18 -22 -140.5 -170 t-158.5 -197v-403h-110z" />
<glyph unicode="L" horiz-adv-x="1095" d="M246 0h796l19 102q-232 -1 -408.5 -1t-296.5 1v1438h-110v-1540z" />
<glyph unicode="M" horiz-adv-x="1720" d="M213 0v1540h174l473 -1198l473 1198h174l2 -1540h-110l2 1409l-481 -1206h-119l-479 1206v-1409h-109z" />
<glyph unicode="N" horiz-adv-x="1462" d="M246 0v1540h114l752 -1323v1323h111v-1540h-109l-756 1329v-1329h-112z" />
<glyph unicode="O" horiz-adv-x="1421" d="M162 612v299q0 297 150.5 468t398.5 171t398.5 -171.5t150.5 -467.5v-295q0 -302 -147.5 -470.5t-395.5 -168.5q-256 0 -405.5 168t-149.5 467zM274 612q0 -264 118 -398t327 -134q208 0 318 135t110 397v301q0 257 -119.5 395t-318.5 138t-316 -135.5t-117 -397.5 q0 -22 -1 -71.5t-1 -229.5z" />
<glyph unicode="P" horiz-adv-x="1288" d="M246 0h110v647h371q99 0 180 36.5t134 99.5t81.5 146t28.5 177q0 114 -48 211t-143 158.5t-219 62.5h-495v-1538zM356 748v690q28 -1 75.5 -1t140.5 0.5t169 0.5h3q140 0 216 -94t76 -238q-3 -158 -83 -258t-226 -100h-371z" />
<glyph unicode="Q" horiz-adv-x="1415" d="M164 635v4v287q0 281 144 453q144 171 387 171h3q165 -1 288 -80t187 -219.5t64 -324.5v-291q0 -142 -33.5 -257t-92.5 -190t-131.5 -120t-156.5 -60q-4 -1 19.5 -37t59.5 -79t61 -60q30 -22 73 -26h13q39 0 86 18v-111q-45 -19 -91 -19q-51 0 -102 23q-56 29 -113 93 q-22 26 -51 68t-46 64.5t-51 43t-79 26.5q-201 12 -319.5 176.5t-118.5 446.5zM279 627v-15q0 -512 421 -512q214 0 321 138q105 136 105 386v9v297q0 132 -35 234.5t-95 163t-136 90.5q-73 30 -156 30h-6q-86 -1 -159.5 -31t-132.5 -90.5t-93 -162t-34 -234.5v-303z" />
<glyph unicode="R" horiz-adv-x="1306" d="M246 0v1540q9 -1 102 -1h114q202 1 273 1q126 0 225.5 -62t151 -160.5t51.5 -211.5q0 -181 -103 -305t-263 -139q63 -50 110 -142q19 -36 60.5 -122.5t73 -148t53.5 -91.5q34 -46 68 -58q16 -6 33 -5q19 0 38 7l2 -100q-33 -11 -69 -12h-2q-34 0 -76 24q-44 25 -78 74 q-54 78 -150 279q-5 11 -19 40t-20.5 42t-20.5 39t-23 38.5t-24.5 33.5t-28.5 31.5t-32 24.5t-38 20.5t-43 11.5t-50 5h-203v-653h-112zM358 754h377q143 0 228.5 101t85.5 249q0 135 -87.5 234.5t-226.5 99.5h-377v-684z" />
<glyph unicode="S" horiz-adv-x="1243" d="M143 1169q-2 -22 -2 -43q-1 -127 67 -221q78 -109 200 -151q45 -16 98.5 -29t135 -29.5t112.5 -23.5q122 -28 190 -106q52 -60 52 -157q0 -30 -5 -63q-11 -76 -47.5 -131.5t-91 -86t-115.5 -44.5t-131 -14q-105 0 -195.5 35t-197.5 106l-43 -109q91 -58 184 -92.5 t224 -44.5q28 -2 55 -2q173 1 297 85q144 98 172 271q7 44 7 85q1 96 -39 175q-56 112 -187 164q-39 15 -89.5 29.5t-86 22.5t-99 21.5t-88.5 19.5q-59 13 -106.5 37.5t-86.5 64.5t-57 100q-12 42 -13 91q0 22 3 45q12 120 97 195t229 79q19 1 37 1q86 0 164 -27 q94 -33 210 -107l56 102q-59 33 -97 52t-98 42.5t-123 33.5q-57 9 -120 9h-13h-4q-195 0 -317 -102q-123 -103 -138 -283z" />
<glyph unicode="T" horiz-adv-x="1169" d="M90 1436h434v-1436h111v1436h448v100h-993v-100z" />
<glyph unicode="U" horiz-adv-x="1511" d="M236 541v264v733h110v-1014q0 -114 32 -200.5t89.5 -139t132.5 -78.5t166 -26q181 0 292 111.5t111 332.5v1014h111v-997v-17q0 -117 -28.5 -210.5t-77 -155.5t-115.5 -103.5t-139.5 -59.5t-153.5 -18q-85 0 -160.5 18t-144 60.5t-118 106t-78.5 160.5t-29 219z" />
<glyph unicode="V" horiz-adv-x="1280" d="M84 1540h119l452 -1436l420 1436h121l-457 -1540h-166z" />
<glyph unicode="W" horiz-adv-x="2060" d="M150 1540h114l383 -1429l332 1359h108l357 -1359l356 1429h115l-383 -1540h-166l-332 1274l-307 -1274h-166z" />
<glyph unicode="X" horiz-adv-x="1325" d="M84 0q179 272 500 774q-385 599 -496 766h135q42 -64 189.5 -296.5t236.5 -369.5q90 140 242 370t194 296h136q-21 -32 -204.5 -305.5t-303.5 -458.5q83 -129 172.5 -267t140 -216t53.5 -82q51 -75 68 -90q23 -18 59 -20q10 -1 20 0q25 0 48 3v-108q-32 -4 -60 -4 q-39 0 -71 8q-18 5 -35.5 14.5t-29 18t-27 27t-22 27t-23 32.5t-21.5 31t-49 75.5t-129 202.5t-158 248q-104 -161 -256.5 -402.5t-173.5 -273.5h-135z" />
<glyph unicode="Y" horiz-adv-x="1110" d="M45 1540h123q66 -143 201 -452t200 -445q43 101 178 421.5t205 475.5h121q-147 -315 -395 -907q-53 -115 -53 -201v-432h-111v432q0 85 -51 197q-319 703 -418 911z" />
<glyph unicode="Z" horiz-adv-x="1259" d="M113 135q99 148 435 650t437 653h-844v102q88 -1 243 -1t380.5 0.5t347.5 0.5v-125q-126 -186 -883 -1315h893v-102q-139 2 -977 2z" />
<glyph unicode="[" horiz-adv-x="675" d="M246 -285v1827h354l-14 -98h-221v-1630h221l14 -99h-354z" />
<glyph unicode="\" horiz-adv-x="671" d="M-35 1501h109l631 -1786h-107z" />
<glyph unicode="]" horiz-adv-x="675" d="M76 -285l14 99h221v1630h-221l-14 98h354v-1827h-354z" />
<glyph unicode="^" horiz-adv-x="1038" d="M186 995v17l254 528h160l252 -528v-17h-104l-230 496l-229 -496h-103z" />
<glyph unicode="_" d="M66 -141h892v-101h-892v101z" />
<glyph unicode="`" d="M328 1538h139l227 -293v-16h-104z" />
<glyph unicode="a" horiz-adv-x="1175" d="M147 328q0 -162 105.5 -246t269.5 -84q101 0 201.5 42t142.5 99v-139h107v707q0 165 -108.5 265.5t-276.5 100.5q-174 0 -387 -127q27 -45 53 -96q73 57 160.5 93t165.5 36q75 0 138 -28t105 -91t43 -151v-168q-5 5 -15 13.5t-44 30.5t-70 39t-92 30.5t-113 13.5 q-176 0 -280.5 -85.5t-104.5 -254.5zM252 324q0 249 299 249q121 0 218 -70.5t97 -146.5v-5v-5v-5v-5v-5v-5v-6v-5v-6q0 -83 -102 -149t-223 -66q-134 0 -211.5 57.5t-77.5 172.5z" />
<glyph unicode="b" horiz-adv-x="1210" d="M197 0h106v172q131 -176 344 -176q177 0 287 112t110 310v219q0 196 -109.5 313t-279.5 117q-69 0 -131 -21.5t-100.5 -51.5t-67.5 -60.5t-41 -51.5l-12 -22v680l-106 -33v-1507zM303 412v227q0 70 43 144t124.5 127t176.5 53q139 0 216 -93t77 -233v-219 q0 -69 -17 -125.5t-51.5 -101t-93.5 -69t-137 -24.5q-138 0 -238 91t-100 223z" />
<glyph unicode="c" horiz-adv-x="1015" d="M143 444v174q0 195 124.5 324t301.5 129q101 0 195.5 -38.5t150.5 -94.5q-17 -29 -51 -82q-126 123 -295 123q-127 0 -221 -102t-94 -256v-175q0 -160 88.5 -259t220.5 -99q108 0 189 44.5t133 113.5q6 -17 20.5 -53.5t18.5 -49.5q-6 -6 -16.5 -16t-46 -36t-74 -45.5 t-98 -35.5t-120.5 -16q-188 0 -307 130t-119 320z" />
<glyph unicode="d" horiz-adv-x="1208" d="M154 418q0 -199 109.5 -310.5t287.5 -111.5q114 0 203.5 55t140.5 125v-176h106v1540l-106 -33v-645q-4 8 -12.5 22t-40 49.5t-68.5 62.5t-99.5 49t-131.5 22q-171 0 -280 -116.5t-109 -313.5v-219zM258 418v219q0 141 77 234.5t216 93.5q95 0 176.5 -53t124.5 -127 t43 -144v-229q0 -134 -100 -226t-238 -92q-78 0 -137 25t-93.5 70.5t-51.5 102.5t-17 126z" />
<glyph unicode="e" horiz-adv-x="1153" d="M154 426q0 -195 113 -310.5t311 -115.5q191 0 330 91q33 22 34 26q-1 36 -1 64.5t1 49.5q-58 -52 -154.5 -93.5t-209.5 -41.5q-84 0 -154.5 31t-117 100.5t-46.5 167.5v76h436q299 0 299 242q0 156 -117.5 255t-291.5 99q-130 0 -230 -66.5t-151 -175t-51 -239.5v-160z M260 567v23q0 165 89.5 275t238.5 110q138 0 221.5 -76.5t83.5 -185.5q0 -146 -193 -146h-440z" />
<glyph unicode="f" horiz-adv-x="729" d="M74 969h137v-969h104v969h390v96h-390v125q0 84 33 142t87.5 82t126.5 28h17q63 0 132 -23l2 103q-79 18 -158 18q-153 -2 -248.5 -96.5t-95.5 -269.5v-109h-137v-96z" />
<glyph unicode="g" horiz-adv-x="1163" d="M158 379q0 -174 117.5 -277.5t299.5 -103.5q105 0 203.5 59t120.5 111v-262q0 -100 -86 -171t-203 -71q-169 0 -321 105l-15 -113q158 -90 338 -90q73 0 141.5 24.5t124 69.5t89.5 117.5t34 161.5v1126l-102 -18v-148q-46 69 -142.5 117.5t-191.5 48.5 q-183 0 -295 -110.5t-112 -309.5v-266zM260 377v280q0 148 87 230t222 82q124 0 227 -84t103 -199v-299q0 -80 -49.5 -148.5t-124 -106.5t-150.5 -38q-136 0 -224.5 80.5t-90.5 202.5z" />
<glyph unicode="h" horiz-adv-x="1275" d="M236 0h104v686q0 118 96.5 199.5t220.5 81.5q120 0 205.5 -79.5t85.5 -203.5v-684h103v682q0 89 -33.5 164t-87 122t-118 73t-130.5 26q-223 0 -342 -168v641l-104 -14v-1526z" />
<glyph unicode="i" horiz-adv-x="544" d="M195 1391q0 -29 20 -49.5t49 -20.5h8h7q29 0 49 21t20 49q0 29 -20 49t-49 20h-5h-10q-29 0 -49 -20t-20 -49zM219 0h107v1073l-107 -14v-1059z" />
<glyph unicode="j" horiz-adv-x="561" d="M25 -315v-95q39 -9 75 -9q61 0 110 27q77 44 113.5 137.5t36.5 225.5v1108l-104 -14v-1118q0 -158 -65 -227q-43 -47 -102 -47q-30 0 -64 12zM231 1389q0 -29 21 -49.5t49 -20.5h12h2q29 0 49.5 21t20.5 49q0 29 -20 49t-48 20h-8h-8q-28 0 -49 -20t-21 -49z" />
<glyph unicode="k" horiz-adv-x="1167" d="M236 0h106v319q35 33 123 119t113 109q149 -200 346 -473q41 -56 95 -74q25 -9 51 -9q29 0 58 11v94q-18 -5 -34 -5q-24 -1 -44 11q-32 18 -61 60q-240 331 -334 456q272 287 432 447h-137q-20 -20 -151 -152t-261.5 -263.5t-195.5 -194.5v1050l-106 -16v-1489z" />
<glyph unicode="l" horiz-adv-x="561" d="M229 0h107v1540l-107 -14v-1526z" />
<glyph unicode="m" horiz-adv-x="1841" d="M201 0h106v674q0 70 28 127.5t71.5 92.5t92.5 54t95 19q56 0 104.5 -16t87.5 -48.5t61.5 -88t22.5 -128.5v-686h101v4v3v4v4v4v3v4v4v4v3v4v4v4v3v4v4v4v3v4v4v4v4v3v4v4v4v3v4v4v4v4v3v4v4v4v3v4v4v4v4v3v4v4v4v4v3v4v4v4v4v4v3v4v4v4v4v4v3v4v4v4v4v4v4v3v4v4v4v4v4v4 v4v3v4v4v4v4v4v4v4v4v4v3v4v4v4v4v4v4v4v4v4v4v4v4v4v4v4v4v4v4v4v4v4v4v4v4v4v4v4v4v4v4v4v4v4v4v4v4v4v5v4v4v4v4v4v4v5v4v4v4v4v5v4v4v4v5v4v4v5v4v4v5v4v4v5v4v5v4v5v4v5v4v5v5v4v5v5v5v5v5v5v5v5v6v5v9q0 124 85.5 204.5t203.5 80.5q127 0 198.5 -81t71.5 -214v-670 h110v670q0 175 -98.5 286t-263.5 111q-227 0 -338 -184q-40 86 -120.5 136t-198.5 50q-91 0 -179.5 -45t-134.5 -119v162l-106 -20v-1047z" />
<glyph unicode="n" horiz-adv-x="1245" d="M209 0h106v659q0 74 30 135t77.5 98.5t103.5 58t111 20.5q139 0 218 -81.5t79 -234.5v-655h102v651q0 194 -100.5 306t-276.5 112q-120 0 -206 -47.5t-138 -114.5v162l-106 -25v-1044z" />
<glyph unicode="o" horiz-adv-x="1212" d="M154 473q0 -205 123 -342t333 -137q209 0 330 135.5t121 343.5v125q0 94 -31 180t-86.5 152t-140 105.5t-185.5 39.5q-108 0 -197 -38.5t-146.5 -104.5t-89 -151.5t-31.5 -180.5v-127zM260 475v119q0 171 99.5 278t258.5 107q141 0 238.5 -108t97.5 -275v-121 q0 -171 -89.5 -277t-250.5 -106t-257.5 107.5t-96.5 275.5z" />
<glyph unicode="p" horiz-adv-x="1183" d="M168 -410l106 29v576q4 -8 11 -21t36 -46.5t64.5 -59.5t97.5 -47t133 -21q173 0 286.5 115t113.5 315v217q0 198 -110 310t-288 112q-211 0 -344 -174v172l-106 -20v-1457zM274 428v225q0 132 100 223t238 91q78 0 137 -24.5t93.5 -69t51.5 -101t17 -125.5v-217 q0 -140 -80.5 -233t-220.5 -93q-145 0 -240.5 98.5t-95.5 225.5z" />
<glyph unicode="q" horiz-adv-x="1193" d="M154 430q0 -196 109.5 -313t279.5 -117q51 0 97.5 11t81 28t64 38t49 42.5t33.5 38.5t20 28l7 11v-613l106 33v1450l-106 -20v-152q-133 174 -344 174q-177 0 -287 -112t-110 -310v-217zM258 430v217q0 69 17 125.5t51.5 101t93.5 69t137 24.5q138 0 238 -91t100 -223 v-225q0 -70 -43 -144t-124.5 -127t-176.5 -53q-139 0 -216 92.5t-77 233.5z" />
<glyph unicode="r" horiz-adv-x="782" d="M211 0v1049l102 18v-160q42 77 105.5 119.5t140.5 42.5q91 0 170 -41l-20 -100q-64 41 -148 41q-76 0 -134 -43t-86 -107.5t-28 -136.5v-682h-102z" />
<glyph unicode="s" horiz-adv-x="1015" d="M139 850q-7 -33 -7 -63q0 -53 22 -101q34 -74 102 -119q31 -20 83 -37.5t99.5 -28.5t113.5 -25q17 -3 26 -5q193 -37 193 -191q0 -9 -1 -18q-13 -172 -233 -172q-84 0 -181 30.5t-172 86.5q-3 -6 -18.5 -42t-22.5 -54q63 -45 176 -82t218 -37q138 0 231.5 65.5 t110.5 184.5q3 26 4 49q0 174 -189 246q-44 17 -164 44t-129 29q-90 25 -133 85q-29 40 -29 91q0 25 7 52q21 78 93 112q63 29 149 30q13 0 26 -1q84 -4 153 -31t144 -76q18 43 41 101q-96 49 -170.5 73.5t-167.5 30.5q-18 1 -35 1q-123 0 -213 -51q-102 -58 -127 -177z" />
<glyph unicode="t" horiz-adv-x="831" d="M63 971v96h140v330l104 20v-350h424v-96h-424v-641q0 -111 48 -173.5t141 -62.5q61 0 124 29.5t93 62.5l4 -120q-10 -8 -29.5 -20t-81.5 -32t-127 -20q-137 0 -206.5 94t-69.5 250v633h-140z" />
<glyph unicode="u" horiz-adv-x="1204" d="M193 416q0 -194 100 -306t276 -112q120 0 206 47.5t138 114.5v-160h107v1067h-107v-659q0 -74 -30 -135t-77.5 -98.5t-103 -58t-110.5 -20.5q-139 0 -218 81.5t-79 234.5v655h-102v-651z" />
<glyph unicode="v" horiz-adv-x="1052" d="M94 1067l357 -1067h159l355 1067h-113q-51 -171 -165.5 -505t-156.5 -466q-43 138 -160.5 480t-160.5 491h-115z" />
<glyph unicode="w" horiz-adv-x="1619" d="M109 1067l286 -1067h158l248 926l248 -926h157l289 1067h-111l-254 -971q-227 818 -262 955h-135q-15 -61 -80 -298.5t-123 -444.5l-57 -208q-238 901 -256 967h-108z" />
<glyph unicode="x" horiz-adv-x="1003" d="M82 0h125l291 449q263 -408 290 -449h125l-352 530q336 514 350 537h-125l-288 -455q-266 418 -289 455h-125l350 -537q-340 -514 -352 -530z" />
<glyph unicode="y" horiz-adv-x="997" d="M70 1067l401 -1059q-14 -48 -57 -155q-30 -74 -72 -109q-41 -33 -82 -33l-4 1q-42 1 -90 28l-4 -98q38 -23 90 -23q92 0 152 49.5t112 181.5l422 1217h-115l-301 -920q-289 770 -340 920h-112z" />
<glyph unicode="z" horiz-adv-x="1069" d="M123 119l57 -119h738v98h-678q614 746 667 809v160h-739l8 -98h645q-592 -717 -698 -850z" />
<glyph unicode="{" horiz-adv-x="675" d="M147 578v108q135 0 203 45q51 27 64.5 91.5t-15.5 117.5q-25 50 -99.5 136.5t-98.5 123.5q-51 72 -51 152q0 57 25 97.5t68.5 61t90 29t100.5 8.5q39 0 80 -6l-16 -96q-30 6 -64 6q-29 0 -57 -4.5t-57 -15t-46.5 -31.5t-17.5 -49q0 -39 26 -86t59 -84t74 -84t60 -76 q51 -76 51 -158q0 -86 -43 -151q-51 -72 -159 -82q58 -1 99 -26t60 -54q43 -65 43 -152q0 -112 -98 -221q-83 -93 -139 -176q-51 -68 -23 -129q33 -41 98 -54t134 -3l16 -95q-40 -6 -80 -6q-51 0 -98 10t-90.5 31t-69.5 61.5t-26 94.5t27.5 107.5t67 97.5l79 88t67 94.5 t27.5 99.5q0 105 -86 144q-66 35 -185 35z" />
<glyph unicode="|" horiz-adv-x="552" d="M227 -451v2024h99v-2024h-99z" />
<glyph unicode="}" horiz-adv-x="675" d="M141 397q0 87 43 152q51 72 160 82q-58 1 -99.5 26t-60.5 54q-43 65 -43 151q0 111 99 221q80 89 139 177q51 67 22 129q-33 41 -97.5 54t-133.5 3l-16 94q40 6 79 6q51 0 98 -9.5t90.5 -31t70 -61.5t26.5 -94t-27.5 -107.5t-67 -98t-79 -88t-67 -94.5t-27.5 -100 q0 -104 86 -143q66 -35 184 -35v-109q-136 0 -203 -45q-51 -27 -64.5 -91t15.5 -117q25 -50 100 -137t99 -124q51 -72 51 -151q0 -57 -25.5 -97.5t-69 -61t-90 -29.5t-100.5 -9q-39 0 -79 6l16 97q30 -6 63 -6q40 0 77.5 7.5t69.5 31.5t32 61q0 39 -26 86t-59 84t-74 84 t-60 76q-52 77 -52 157z" />
<glyph unicode="~" horiz-adv-x="1038" d="M123 465v115q53 55 104 77.5t117 22.5q45 0 95.5 -18.5t87.5 -41t83.5 -41t85.5 -18.5q62 0 105 25.5t114 91.5v-115q-58 -56 -107.5 -79t-111.5 -23q-46 0 -96 18.5t-86.5 41t-83.5 41t-86 18.5q-63 0 -110.5 -27t-110.5 -88z" />
<glyph unicode="&#xa1;" horiz-adv-x="616" d="M227 1016q0 38 22.5 59t61.5 21q36 0 59 -21.5t23 -58.5t-23 -57.5t-61 -20.5q-36 0 -59 20t-23 58zM252 133l14 520h86l13 -520v-504h-113v504z" />
<glyph unicode="&#xa2;" horiz-adv-x="1144" d="M184 489v230q0 187 120 309.5t296 122.5h12l13 133h77l-14 -139q77 -11 143.5 -35t104.5 -51q-4 -12 -20.5 -48t-22.5 -55q-99 76 -213 95l-88 -899h2q83 0 171.5 34.5t139.5 85.5q4 -12 12.5 -35t14 -40t8.5 -27q-6 -5 -16.5 -12t-45.5 -26.5t-72.5 -34t-93.5 -26.5 t-112 -12h-16l-13 -133h-77l14 142q-150 29 -237 143t-87 278zM295 471q0 -116 61 -200t160 -109l88 897h-4q-123 0 -214 -94.5t-91 -223.5v-270z" />
<glyph unicode="&#xa3;" horiz-adv-x="1144" d="M137 0v104h150q100 0 147 55.5t47 147.5q0 46 -8 88.5t-26 86t-33.5 74t-44 82.5t-43.5 81h-189v94h142q-80 157 -80 305q0 190 123.5 309t314.5 119q110 0 207.5 -43t156.5 -127l-88 -63q-46 63 -120 97t-156 34q-147 0 -236.5 -88.5t-89.5 -237.5q0 -133 49 -244 q5 -13 15.5 -32t15.5 -29h545l-18 -94h-476q12 -23 41.5 -77.5t42 -80.5t30.5 -70t25 -83.5t7 -83.5q0 -63 -17.5 -125.5t-48.5 -94.5h498v-104h-883z" />
<glyph unicode="&#xa4;" horiz-adv-x="1159" d="M135 152l105 112q-93 131 -93 299q0 172 93 303l-105 113l74 70l104 -113q118 86 267 86q148 0 266 -86l102 113l76 -70l-106 -113q94 -127 94 -301t-94 -301l106 -112l-76 -68l-102 113q-116 -88 -266 -88q-151 0 -267 88l-104 -113zM248 565q0 -175 89.5 -268.5 t240.5 -93.5q153 0 243 93t90 269q0 177 -89.5 270t-243.5 93q-151 0 -240.5 -93t-89.5 -270z" />
<glyph unicode="&#xa5;" horiz-adv-x="1179" d="M74 1540h123q66 -143 201 -452t200 -445q43 101 178 421.5t205 475.5h121q-138 -295 -391 -899h270v-82h-303q-25 -73 -25 -127v-26h328v-82h-328v-324h-110v324h-348v82h348v26q0 56 -23 127h-325v82h292q-26 56 -117 256t-165.5 363t-130.5 280z" />
<glyph unicode="&#xa6;" horiz-adv-x="552" d="M227 0v616h99v-616h-99zM227 885v616h99v-616h-99z" />
<glyph unicode="&#xa7;" horiz-adv-x="1116" d="M188 752q26 120 144 182q-26 10 -56 33q-128 106 -88 282q24 111 123 170t240 51q66 -4 177.5 -34t160.5 -29q-11 -68 -19 -104q-58 3 -163 36.5t-166 36.5q-101 5 -171 -41t-79 -137q-9 -98 56.5 -149.5t197.5 -69.5q218 -28 301 -98q47 -39 73 -108t17 -138 q-18 -146 -150 -215q35 -15 60 -37q47 -39 73 -108t17 -138q-15 -121 -109 -190t-233 -64q-48 2 -182.5 27t-200.5 22q4 58 14 113q56 1 186.5 -31t182.5 -32q220 0 233 176q4 49 -11 87.5t-45 63t-64.5 39t-77.5 21.5q-10 2 -72 11.5t-85 14t-68.5 15.5t-75 25.5 t-52.5 33.5q-128 106 -88 283zM291 700q-9 -98 56.5 -149.5t197.5 -69.5q5 -1 14 -2t14 -2q6 2 21 2q220 0 233 176q4 49 -11 87.5t-45 63t-64.5 39t-77.5 21.5q-9 1 -36 6t-42 7h-10q-101 5 -171 -41.5t-79 -137.5z" />
<glyph unicode="&#xa8;" d="M254 1356q0 35 20.5 54.5t55.5 19.5q32 0 51.5 -19t19.5 -55q0 -35 -18.5 -54.5t-52.5 -19.5q-35 0 -55.5 19t-20.5 55zM623 1356q0 35 19 54.5t54 19.5q32 0 53 -19.5t21 -54.5t-20 -54.5t-54 -19.5t-53.5 19t-19.5 55z" />
<glyph unicode="&#xa9;" horiz-adv-x="1542" d="M104 750q0 232 76.5 405t228.5 270t363 97q314 0 490 -210t176 -562q0 -133 -26.5 -249t-81 -212t-133 -164.5t-187 -106.5t-238.5 -38q-162 0 -290 58t-210 161.5t-125 243.5t-43 307zM180 750q0 -120 23 -225t70.5 -193t116.5 -151.5t166.5 -98.5t215.5 -35 q193 0 328 89.5t199.5 245.5t64.5 368q0 208 -69.5 366.5t-204.5 248t-318 89.5q-147 0 -261 -52t-186 -146t-108.5 -222t-36.5 -284zM485 662v169q0 138 89 229t219 91q72 0 140.5 -21t108.5 -47q-2 -5 -14.5 -32.5t-17.5 -42.5q-98 75 -217 75q-91 0 -158.5 -70 t-67.5 -165v-201q0 -101 63 -169t158 -68q61 0 127 26.5t105 65.5q3 -9 12.5 -38.5t11.5 -39.5q-4 -3 -12 -8.5t-34 -20t-53.5 -25t-69 -19.5t-82.5 -9q-139 0 -223.5 90t-84.5 230z" />
<glyph unicode="&#xaa;" horiz-adv-x="833" d="M104 987q0 -119 78 -180.5t199 -61.5q74 0 148.5 31.5t105.5 73.5v-105h78v523q0 121 -80 195.5t-205 74.5q-135 0 -285 -94q11 -17 39 -70q55 41 119 67.5t121 26.5q88 0 150 -51t63 -147v-125q-4 4 -11.5 10t-32.5 22.5t-52 29t-68.5 22.5t-83.5 10q-130 0 -206.5 -63 t-76.5 -189zM180 985q0 184 221 184q89 0 161.5 -51.5t72.5 -107.5v-5v-4v-5v-5v-5v-5v-6q0 -62 -76.5 -111t-165.5 -49q-99 0 -156 42.5t-57 127.5z" />
<glyph unicode="&#xab;" horiz-adv-x="1089" d="M119 557l299 473h104l-270 -473l270 -473h-104zM567 557l301 473h103l-271 -473l271 -473h-103z" />
<glyph unicode="&#xac;" horiz-adv-x="1144" d="M119 655v105h905v-535h-111v430h-794z" />
<glyph unicode="&#xad;" horiz-adv-x="512" d="M49 494v100h414v-100h-414z" />
<glyph unicode="&#xae;" horiz-adv-x="931" d="M109 1133q0 181 94 285t262 104q166 0 262 -103t96 -286q0 -176 -94.5 -283t-261.5 -107q-170 0 -264 106.5t-94 283.5zM158 1133q0 -155 77 -250t232 -95q149 0 228 92.5t79 252.5q-2 162 -82 253t-227 91q-151 0 -229 -92t-78 -252zM346 948v369h135q49 0 81 -31.5 t32 -77.5q0 -42 -25 -71.5t-67 -36.5q18 -8 36 -50t25 -51q12 -18 33 -10l2 -41q-20 -4 -40.5 3t-31.5 22q-6 9 -11.5 20t-12 27t-8.5 22q-14 27 -27.5 40.5t-34.5 13.5h-41v-148h-45zM391 1137h82q33 0 53.5 20t20.5 51q0 30 -19 49t-49 19h-88v-139z" />
<glyph unicode="&#xaf;" d="M276 1350v104h474v-104h-474z" />
<glyph unicode="&#xb0;" horiz-adv-x="778" d="M100 1243q0 130 76.5 204.5t210.5 74.5q138 0 214.5 -74t76.5 -205q0 -129 -79 -202.5t-212 -73.5q-134 0 -210.5 73t-76.5 203zM197 1243q0 -88 49 -142t143 -54q90 0 141.5 54.5t51.5 141.5q0 90 -50.5 144.5t-144.5 54.5q-91 0 -140.5 -54.5t-49.5 -144.5z" />
<glyph unicode="&#xb1;" horiz-adv-x="1038" d="M123 0v96h790v-96h-790zM123 584v98h346v405h100v-405h344v-98h-344v-404h-100v404h-346z" />
<glyph unicode="&#xb2;" horiz-adv-x="811" d="M131 1780q64 84 128 131t144 47q117 0 191 -74q65 -63 63 -169.5t-75 -188.5q-43 -50 -171.5 -191.5t-179.5 -201.5h439v-68h-512l-19 78q337 376 389 436q49 57 52 133t-43 123q-48 55 -134 55q-60 0 -127 -57q-39 -37 -88 -104z" />
<glyph unicode="&#xb3;" horiz-adv-x="811" d="M113 1145l47 55q32 -30 49.5 -44.5t52.5 -41t67.5 -38.5t63.5 -11q83 0 131 51q49 46 49 133v27q0 38 -14.5 75t-40.5 60q-57 47 -127 47h-112v66h108q65 0 119 51q51 51 51 125v16q0 79 -43 125q-59 51 -123 51q-24 0 -48 -6.5t-41 -13.5t-39.5 -22.5t-32.5 -24 t-31.5 -27t-26.5 -22.5l-47 55q4 3 32 26t45.5 34.5t49 29t66.5 25.5t73 8q102 0 172 -64q68 -71 68 -174v-16q0 -62 -32.5 -116t-82.5 -87q23 -14 47 -35q37 -32 59.5 -83t22.5 -103v-27q0 -114 -72 -180q-64 -70 -180 -70q-31 0 -62.5 9t-54 19t-51 29t-42.5 30t-39.5 33 t-30.5 26z" />
<glyph unicode="&#xb4;" d="M330 1229v16l227 293h139l-262 -309h-104z" />
<glyph unicode="&#xb5;" horiz-adv-x="1275" d="M236 -453v1538h100v-2h2v-680q0 -81 5.5 -127t25 -85.5t58.5 -55.5t103 -16q38 0 122 24.5t139 24.5q37 0 73.5 -10t53.5 -20l18 -9v954h106v-1044l-94 -25q-25 34 -71 50t-84 16q-59 0 -143 -33t-144 -33q-52 0 -98 20t-72 50v-537h-100z" />
<glyph unicode="&#xb6;" horiz-adv-x="1054" d="M63 899q0 247 125.5 361t372.5 114q186 0 328 -37v-1484h-98v1400q-75 21 -158 21v-1421h-96v598h-84q-195 0 -292.5 102.5t-97.5 345.5z" />
<glyph unicode="&#xb7;" horiz-adv-x="526" d="M176 549q0 38 24.5 61t61.5 23t62.5 -22t25.5 -62q0 -39 -24.5 -62.5t-63.5 -23.5q-37 0 -61.5 23.5t-24.5 62.5z" />
<glyph unicode="&#xb8;" d="M336 -430l18 84q92 -25 152 -25q49 0 69.5 19.5t20.5 60.5q0 40 -33.5 60.5t-142.5 50.5l49 205h74l-37 -150q105 -30 143.5 -66.5t38.5 -101.5q0 -158 -180 -158q-73 0 -172 21z" />
<glyph unicode="&#xb9;" horiz-adv-x="811" d="M205 1741l221 201l61 -29v-848h-73v776l-170 -162z" />
<glyph unicode="&#xba;" horiz-adv-x="886" d="M109 1094q0 -152 90 -253.5t245 -101.5q154 0 243 100.5t89 254.5v92q0 92 -38 171t-113.5 129t-173.5 50q-158 0 -250 -101.5t-92 -248.5v-92zM186 1094v88q0 126 74 204t191 78q103 0 175 -79t72 -201v-90q0 -125 -65.5 -203t-183.5 -78q-119 0 -191 79t-72 202z" />
<glyph unicode="&#xbb;" horiz-adv-x="1089" d="M119 84l268 473l-268 473h102l301 -473l-301 -473h-102zM567 84l271 473l-271 473h103l301 -473l-301 -473h-103z" />
<glyph unicode="&#xbc;" horiz-adv-x="1949" d="M205 1307l221 200l61 -28v-848h-73v776l-170 -162zM668 0l544 1540h80l-544 -1540h-80zM1231 326q0 1 128.5 250.5t196.5 365.5q14 18 42.5 48.5t43.5 49.5h101q-12 -13 -40.5 -43.5t-49.5 -54t-37 -43.5q-4 -6 -8.5 -11.5t-8.5 -11.5t-10 -18q-46 -84 -141 -273.5 t-137 -267.5h342v322h73v-322h142v-67h-142v-250h-73v250h-391z" />
<glyph unicode="&#xbd;" horiz-adv-x="1949" d="M205 1307l221 200l61 -28v-848h-73v776l-170 -162zM668 0l544 1540h80l-544 -1540h-80zM1274 715q64 84 128 131t144 47q117 0 191 -74q65 -64 62.5 -170t-75.5 -188q-43 -49 -171 -191t-179 -202h438v-68h-512l-18 78q337 376 389 436q49 57 51.5 133t-43.5 123 q-48 55 -133 55q-60 0 -127 -57q-39 -37 -88 -104z" />
<glyph unicode="&#xbe;" horiz-adv-x="1949" d="M113 731l47 55q32 -30 49.5 -44.5t52.5 -41t67.5 -38.5t63.5 -11q83 0 131 51q49 46 49 134v26q0 38 -14.5 75t-40.5 60q-57 47 -127 47h-112v66h108q65 0 119 51q51 51 51 125v17q0 78 -43 124q-60 52 -123 52q-28 0 -54 -6.5t-53.5 -24t-39.5 -25.5t-41.5 -34 t-30.5 -27l-47 55q4 3 32 26t45.5 34.5t49 29t66.5 25.5t73 8q103 0 172 -63q68 -71 68 -174v-17q0 -62 -32.5 -116t-82.5 -87q27 -17 47 -34q37 -32 59.5 -83.5t22.5 -103.5v-26q0 -115 -72 -181q-63 -69 -180 -69q-31 0 -62.5 9t-54 18.5t-51.5 29t-42 29.5t-39.5 33 t-30.5 26zM668 0l544 1540h80l-544 -1540h-80zM1231 326q12 22 68 132t126.5 243t130.5 241q14 18 42.5 48.5t43.5 49.5h101q-9 -9 -58.5 -61t-70.5 -78q-14 -21 -25 -43q-168 -336 -278 -541h342v322h73v-322h142v-67h-142v-250h-73v250h-391z" />
<glyph unicode="&#xbf;" horiz-adv-x="927" d="M123 -115q2 48 25 93t57.5 81.5t76 72.5t82 72.5t74.5 74.5t55.5 85.5t22.5 98.5l2 209h98l7 -209q5 -64 -19.5 -126t-66 -109t-92 -96t-95 -88t-76 -84.5t-34.5 -86.5q-4 -51 13 -91.5t50.5 -64t77.5 -36.5t95 -8.5t101.5 21.5t100 51.5t86.5 82.5q4 -19 15.5 -59 t15.5 -56q-60 -59 -136.5 -94.5t-151.5 -44.5t-147 7t-125.5 54t-84.5 103t-27 147zM481 1034q0 38 22.5 59t61.5 21q36 0 59 -21.5t23 -58.5q0 -36 -23.5 -57t-60.5 -21q-36 0 -59 20t-23 58z" />
<glyph unicode="&#xc0;" horiz-adv-x="1277" d="M59 0l523 1538h114l516 -1538h-116q-44 135 -174 512h-572l-174 -512h-117zM367 1853h133l186 -225v-14h-104zM383 614h510l-254 752z" />
<glyph unicode="&#xc1;" horiz-adv-x="1277" d="M59 0l523 1538h114l516 -1538h-116q-44 135 -174 512h-572l-174 -512h-117zM383 614h510l-254 752zM578 1614v14l186 225h135l-217 -239h-104z" />
<glyph unicode="&#xc2;" horiz-adv-x="1277" d="M59 0l523 1538h114l516 -1538h-116q-44 135 -174 512h-572l-174 -512h-117zM379 1614v14l180 225h162l182 -225v-14h-102l-164 192l-158 -192h-100zM383 614h510l-254 752z" />
<glyph unicode="&#xc3;" horiz-adv-x="1277" d="M59 0l523 1538h114l516 -1538h-116q-44 135 -174 512h-572l-174 -512h-117zM322 1634q23 115 64 157t103 42q61 0 111 -33l105 -69q33 -21 67 -21q30 0 53 25t39 96h88q-24 -115 -65.5 -157t-102.5 -42q-57 0 -110 33l-105 68q-37 22 -67 22q-72 0 -92 -121h-88zM383 614 h510l-254 752z" />
<glyph unicode="&#xc4;" horiz-adv-x="1277" d="M59 0l523 1538h114l516 -1538h-116q-44 135 -174 512h-572l-174 -512h-117zM383 614h510l-254 752zM389 1692q0 33 19 51t53 18q32 0 51.5 -17.5t19.5 -51.5t-18.5 -53t-52.5 -19q-33 0 -52.5 18.5t-19.5 53.5zM754 1692q0 69 73 69q31 0 50.5 -17.5t19.5 -51.5t-19 -53 t-53 -19q-33 0 -52 18.5t-19 53.5z" />
<glyph unicode="&#xc5;" horiz-adv-x="1277" d="M59 0l523 1538h114l516 -1538h-116q-44 135 -174 512h-572l-174 -512h-117zM383 614h510l-254 752zM438 1780q0 77 54 119.5t153 42.5t152 -41.5t53 -120.5q0 -76 -51.5 -119t-153.5 -43q-104 0 -155.5 43t-51.5 119zM524 1780q0 -54 30 -76.5t91 -22.5q58 0 88.5 22.5 t30.5 76.5q0 98 -119 98q-61 0 -91 -23t-30 -75z" />
<glyph unicode="&#xc6;" horiz-adv-x="1914" d="M70 0l522 1538h1192v-104h-733v-445q0 -45 2 -69t9 -48t22 -34.5t39.5 -16.5t62.5 -6h530v-102h-553q-74 -1 -93 -33t-19 -125v-449h733l14 -106h-860v537q0 48 1 71.5t6 53.5t16 51h-535l-240 -713h-116zM461 815h508q-31 63 -31 178v441h-266z" />
<glyph unicode="&#xc7;" horiz-adv-x="1198" d="M162 578v380q0 159 69.5 292.5t188 211.5t258.5 82q132 4 246.5 -40t179.5 -109l-70 -88q-76 73 -155.5 106t-190.5 33q-165 0 -289.5 -141.5t-124.5 -348.5v-381q2 -208 113 -346t291 -137q109 1 201.5 41.5t185.5 118.5l61 -98q-192 -158 -430 -166l-28 -115 q105 -30 143.5 -66.5t38.5 -101.5q0 -158 -180 -158q-73 0 -172 21l18 84q92 -25 152 -25q49 0 69.5 19.5t20.5 60.5q0 40 -33.5 60.5t-142.5 50.5l41 172q-209 19 -335 180t-126 408z" />
<glyph unicode="&#xc8;" horiz-adv-x="1212" d="M246 0h860l-14 106h-734v609h666v102h-666v619h734v104h-846v-1540zM418 1853h133l186 -225v-14h-104z" />
<glyph unicode="&#xc9;" horiz-adv-x="1212" d="M246 0h860l-14 106h-734v609h666v102h-666v619h734v104h-846v-1540zM594 1614v14l186 225h135l-217 -239h-104z" />
<glyph unicode="&#xca;" horiz-adv-x="1226" d="M246 0h860l-14 106h-734v609h666v102h-666v619h734v104h-846v-1540zM418 1614v14l180 225h162l182 -225v-14h-102l-164 192l-158 -192h-100z" />
<glyph unicode="&#xcb;" horiz-adv-x="1212" d="M246 0h860l-14 106h-734v609h666v102h-666v613h734v104h-846v-1534zM422 1733q0 33 19 51t53 18q32 0 51.5 -17.5t19.5 -51.5t-18.5 -53t-52.5 -19q-33 0 -52.5 18.5t-19.5 53.5zM786 1733q0 69 74 69q31 0 50.5 -17.5t19.5 -51.5t-19 -53t-53 -19q-33 0 -52.5 18.5 t-19.5 53.5z" />
<glyph unicode="&#xcc;" horiz-adv-x="618" d="M55 1853h133l187 -225v-14h-105zM246 0h110v1540h-110v-1540z" />
<glyph unicode="&#xcd;" horiz-adv-x="618" d="M246 0h110v1540h-110v-1540zM248 1614v14l186 225h135l-217 -239h-104z" />
<glyph unicode="&#xce;" horiz-adv-x="618" d="M57 1614v14l174 227h158l176 -227v-14h-98l-160 194l-151 -194h-99zM246 0h110v1540h-110v-1540z" />
<glyph unicode="&#xcf;" horiz-adv-x="618" d="M66 1712q0 34 18 52t51 18q32 0 51 -18t19 -52t-18 -53t-52 -19q-31 0 -50 19t-19 53zM246 0h110v1540h-110v-1540zM420 1712q0 34 19 52t53 18q29 0 48 -18t19 -52t-19 -53t-51 -19q-31 0 -50 19t-19 53z" />
<glyph unicode="&#xd0;" horiz-adv-x="1433" d="M123 707h123v-707h493q155 0 268.5 77.5t169.5 209t56 301.5v352q0 129 -32 237.5t-92.5 189t-155.5 126t-214 45.5h-493v-731h-123v-100zM356 98v609h314v100h-314v631h379q178 0 279 -135.5t106 -362.5v-352q0 -228 -99 -359t-286 -131h-379z" />
<glyph unicode="&#xd1;" horiz-adv-x="1482" d="M246 0v1540h114l752 -1323v1323h111v-1540h-109l-756 1329v-1329h-112zM453 1655q23 114 64.5 156t103.5 42q61 0 110 -32l105 -70q31 -20 67 -20q30 0 53 24.5t39 95.5h88q-24 -115 -65.5 -156.5t-102.5 -41.5q-57 0 -110 33l-105 67q-17 10 -24 13.5t-18 6.5t-25 3 q-72 0 -92 -121h-88z" />
<glyph unicode="&#xd2;" horiz-adv-x="1462" d="M162 612v299q0 297 150.5 468t398.5 171t398.5 -171.5t150.5 -467.5v-295q0 -302 -147.5 -470.5t-395.5 -168.5q-256 0 -405.5 168t-149.5 467zM274 612q0 -264 118 -398t327 -134q208 0 318 135t110 397v301q0 257 -119.5 395t-318.5 138t-316 -135.5t-117 -397.5 q0 -22 -1 -71.5t-1 -229.5zM467 1853h133l186 -225v-14h-104z" />
<glyph unicode="&#xd3;" horiz-adv-x="1454" d="M162 612v299q0 297 150.5 468t398.5 171t398.5 -171.5t150.5 -467.5v-295q0 -302 -147.5 -470.5t-395.5 -168.5q-256 0 -405.5 168t-149.5 467zM274 612q0 -264 118 -398t327 -134q208 0 318 135t110 397v301q0 257 -119.5 395t-318.5 138t-316 -135.5t-117 -397.5 q0 -22 -1 -71.5t-1 -229.5zM659 1614v14l187 225h135l-217 -239h-105z" />
<glyph unicode="&#xd4;" horiz-adv-x="1443" d="M162 612v299q0 297 150.5 468t398.5 171t398.5 -171.5t150.5 -467.5v-295q0 -302 -147.5 -470.5t-395.5 -168.5q-256 0 -405.5 168t-149.5 467zM274 612q0 -264 118 -398t327 -134q208 0 318 135t110 397v301q0 257 -119.5 395t-318.5 138t-316 -135.5t-117 -397.5 q0 -22 -1 -71.5t-1 -229.5zM469 1614v14l180 225h162l182 -225v-14h-102l-164 192l-158 -192h-100z" />
<glyph unicode="&#xd5;" horiz-adv-x="1443" d="M162 612v299q0 297 150.5 468t398.5 171t398.5 -171.5t150.5 -467.5v-295q0 -302 -147.5 -470.5t-395.5 -168.5q-256 0 -405.5 168t-149.5 467zM274 612q0 -264 118 -398t327 -134q208 0 318 135t110 397v301q0 257 -119.5 395t-318.5 138t-316 -135.5t-117 -397.5 q0 -22 -1 -71.5t-1 -229.5zM422 1651q23 114 64.5 156t103.5 42q61 0 110 -32l105 -70q33 -21 67 -21q30 0 53.5 25t39.5 96h88q-24 -115 -65.5 -156.5t-102.5 -41.5q-60 0 -111 32l-104 68q-39 23 -68 23q-72 0 -92 -121h-88z" />
<glyph unicode="&#xd6;" horiz-adv-x="1415" d="M162 612v299q0 297 150.5 468t398.5 171t398.5 -171.5t150.5 -467.5v-295q0 -302 -147.5 -470.5t-395.5 -168.5q-256 0 -405.5 168t-149.5 467zM274 612q0 -264 118 -398t327 -134q208 0 318 135t110 397v301q0 257 -119.5 395t-318.5 138t-316 -135.5t-117 -397.5 q0 -22 -1 -71.5t-1 -229.5zM479 1712q0 34 19 52t53 18q32 0 52 -18t20 -52t-19 -53t-53 -19q-33 0 -52.5 18.5t-19.5 53.5zM844 1712q0 34 19.5 52t54.5 18q31 0 50 -18t19 -52t-19 -53t-53 -19q-33 0 -52 18.5t-19 53.5z" />
<glyph unicode="&#xd7;" horiz-adv-x="1038" d="M137 236l314 311l-314 313l70 70l311 -314l313 314l68 -70l-311 -313l313 -311l-70 -70l-313 311l-313 -311z" />
<glyph unicode="&#xd8;" horiz-adv-x="1419" d="M125 -92l164 262q-127 164 -127 444v297q0 298 146.5 468.5t391.5 170.5q229 0 369 -143l119 186h76l-152 -235q129 -171 129 -447v-295q0 -303 -143 -471t-391 -168q-233 0 -375 142l-133 -211h-74zM276 614q0 -216 76 -346l658 1045q-114 135 -310 135 q-199 0 -311.5 -134.5t-112.5 -398.5v-301zM391 213q109 -133 320 -133q207 0 312 134.5t105 399.5v301q0 209 -79 342z" />
<glyph unicode="&#xd9;" horiz-adv-x="1490" d="M236 541v264v733h110v-1014q0 -114 32 -200.5t89.5 -139t132.5 -78.5t166 -26q181 0 292 111.5t111 332.5v1014h111v-997v-17q0 -117 -28.5 -210.5t-77 -155.5t-115.5 -103.5t-139.5 -59.5t-153.5 -18q-85 0 -160.5 18t-144 60.5t-118 106t-78.5 160.5t-29 219zM500 1853 h133l186 -225v-14h-104z" />
<glyph unicode="&#xda;" horiz-adv-x="1490" d="M236 541v264v733h110v-1014q0 -114 32 -200.5t89.5 -139t132.5 -78.5t166 -26q181 0 292 111.5t111 332.5v1014h111v-997v-17q0 -117 -28.5 -210.5t-77 -155.5t-115.5 -103.5t-139.5 -59.5t-153.5 -18q-85 0 -160.5 18t-144 60.5t-118 106t-78.5 160.5t-29 219zM668 1614 v14l186 225h135l-217 -239h-104z" />
<glyph unicode="&#xdb;" horiz-adv-x="1490" d="M236 541v264v733h110v-1014q0 -114 32 -200.5t89.5 -139t132.5 -78.5t166 -26q181 0 292 111.5t111 332.5v1014h111v-997v-17q0 -117 -28.5 -210.5t-77 -155.5t-115.5 -103.5t-139.5 -59.5t-153.5 -18q-85 0 -160.5 18t-144 60.5t-118 106t-78.5 160.5t-29 219zM492 1614 v14l180 225h162l182 -225v-14h-103l-163 192l-158 -192h-100z" />
<glyph unicode="&#xdc;" horiz-adv-x="1490" d="M236 541v264v733h110v-1014q0 -114 32 -200.5t89.5 -139t132.5 -78.5t166 -26q181 0 292 111.5t111 332.5v1014h111v-997v-17q0 -117 -28.5 -210.5t-77 -155.5t-115.5 -103.5t-139.5 -59.5t-153.5 -18q-85 0 -160.5 18t-144 60.5t-118 106t-78.5 160.5t-29 219zM514 1733 q0 33 19 51t53 18q32 0 51.5 -17.5t19.5 -51.5t-18.5 -53t-52.5 -19q-33 0 -52.5 18.5t-19.5 53.5zM879 1733q0 69 73 69q31 0 50.5 -17.5t19.5 -51.5t-19 -53t-53 -19q-33 0 -52 18.5t-19 53.5z" />
<glyph unicode="&#xdd;" horiz-adv-x="1087" d="M33 1540h123q66 -143 201 -452t200 -445q43 101 178 421.5t205 475.5h121q-147 -315 -395 -907q-54 -117 -54 -201v-432h-110v432q0 85 -51 197q-319 703 -418 911zM485 1614v14l187 225h135l-217 -239h-105z" />
<glyph unicode="&#xde;" horiz-adv-x="1251" d="M246 0v1538h106v-360h340q172 0 293 -121t121 -293q0 -171 -121.5 -292.5t-292.5 -121.5h-225h-115v-350h-106zM352 459h340q51 0 99.5 16.5t93 51t71.5 96t27 141.5q0 139 -88 222t-203 83h-340v-610z" />
<glyph unicode="&#xdf;" horiz-adv-x="1153" d="M221 0v1243q0 85 17.5 146.5t59 109t115 71t181.5 23.5q352 0 352 -274q0 -64 -33.5 -126.5t-81 -112.5t-94.5 -97t-80.5 -99.5t-33.5 -101.5q0 -41 23 -77t60 -64.5t81.5 -57t89.5 -60.5t82 -67.5t60 -86t23 -109.5q0 -128 -76 -204t-210 -76q-111 0 -267 49l27 106 q104 -35 147 -44t89 -9q79 0 127.5 45t48.5 129q0 46 -23.5 86t-60.5 70t-82 59t-90 59.5t-82 64.5t-60.5 80.5t-23.5 100.5q0 60 33.5 119t81 108t94.5 97t80.5 103.5t33.5 109.5q0 92 -50.5 136t-188.5 44q-143 0 -199.5 -52t-56.5 -188v-1253h-113z" />
<glyph unicode="&#xe0;" horiz-adv-x="1122" d="M147 328q0 -162 105.5 -246t269.5 -84q101 0 201.5 42t142.5 99v-139h107v707q0 165 -108.5 265.5t-276.5 100.5q-174 0 -387 -127q27 -45 53 -96q73 57 160.5 93t165.5 36q75 0 138 -28t105 -91t43 -151v-168q-5 5 -15 13.5t-44 30.5t-70 39t-92 30.5t-113 13.5 q-176 0 -280.5 -85.5t-104.5 -254.5zM252 324q0 249 299 249q121 0 218 -70.5t97 -146.5v-5v-5v-5v-5v-5v-5v-6v-5v-6q0 -83 -102 -149t-223 -66q-134 0 -211.5 57.5t-77.5 172.5zM301 1501h139l228 -293v-16h-105z" />
<glyph unicode="&#xe1;" horiz-adv-x="1122" d="M147 328q0 -162 105.5 -246t269.5 -84q101 0 201.5 42t142.5 99v-139h107v707q0 165 -108.5 265.5t-276.5 100.5q-174 0 -387 -127q27 -45 53 -96q73 57 160.5 93t165.5 36q75 0 138 -28t105 -91t43 -151v-168q-5 5 -15 13.5t-44 30.5t-70 39t-92 30.5t-113 13.5 q-176 0 -280.5 -85.5t-104.5 -254.5zM252 324q0 249 299 249q121 0 218 -70.5t97 -146.5v-5v-5v-5v-5v-5v-5v-6v-5v-6q0 -83 -102 -149t-223 -66q-134 0 -211.5 57.5t-77.5 172.5zM510 1192v16l227 293h140l-263 -309h-104z" />
<glyph unicode="&#xe2;" horiz-adv-x="1122" d="M147 328q0 -162 105.5 -246t269.5 -84q101 0 201.5 42t142.5 99v-139h107v707q0 165 -108.5 265.5t-276.5 100.5q-174 0 -387 -127q27 -45 53 -96q73 57 160.5 93t165.5 36q75 0 138 -28t105 -91t43 -151v-168q-5 5 -15 13.5t-44 30.5t-70 39t-92 30.5t-113 13.5 q-176 0 -280.5 -85.5t-104.5 -254.5zM252 324q0 249 299 249q121 0 218 -70.5t97 -146.5v-5v-5v-5v-5v-5v-5v-6v-5v-6q0 -83 -102 -149t-223 -66q-134 0 -211.5 57.5t-77.5 172.5zM299 1192v14l205 295h168l205 -295v-14h-103l-188 260l-185 -260h-102z" />
<glyph unicode="&#xe3;" horiz-adv-x="1122" d="M147 328q0 -162 105.5 -246t269.5 -84q101 0 201.5 42t142.5 99v-139h107v707q0 165 -108.5 265.5t-276.5 100.5q-174 0 -387 -127q27 -45 53 -96q73 57 160.5 93t165.5 36q75 0 138 -28t105 -91t43 -151v-168q-5 5 -15 13.5t-44 30.5t-70 39t-92 30.5t-113 13.5 q-176 0 -280.5 -85.5t-104.5 -254.5zM223 1192q24 138 67.5 185.5t115.5 47.5q64 0 124 -43l107 -77q26 -19 41 -24t39 -5q33 0 57.5 30t38.5 117h92q-18 -97 -45.5 -150t-58.5 -69t-78 -16q-62 0 -123 43l-108 78q-43 30 -68 30q-48 0 -70.5 -33t-38.5 -114h-92zM252 324 q0 249 299 249q121 0 218 -70.5t97 -146.5v-5v-5v-5v-5v-5v-5v-6v-5v-6q0 -83 -102 -149t-223 -66q-134 0 -211.5 57.5t-77.5 172.5z" />
<glyph unicode="&#xe4;" horiz-adv-x="1122" d="M147 328q0 -162 105.5 -246t269.5 -84q101 0 201.5 42t142.5 99v-139h107v707q0 165 -108.5 265.5t-276.5 100.5q-174 0 -387 -127q27 -45 53 -96q73 57 160.5 93t165.5 36q75 0 138 -28t105 -91t43 -151v-168q-5 5 -15 13.5t-44 30.5t-70 39t-92 30.5t-113 13.5 q-176 0 -280.5 -85.5t-104.5 -254.5zM252 324q0 249 299 249q121 0 218 -70.5t97 -146.5v-5v-5v-5v-5v-5v-5v-6v-5v-6q0 -83 -102 -149t-223 -66q-134 0 -211.5 57.5t-77.5 172.5zM330 1335q0 35 20.5 54.5t55.5 19.5q32 0 51.5 -19t19.5 -55q0 -35 -18.5 -54t-52.5 -19 q-35 0 -55.5 18.5t-20.5 54.5zM698 1335q0 35 19.5 54.5t54.5 19.5q32 0 53 -19.5t21 -54.5t-20 -54t-54 -19q-35 0 -54.5 18.5t-19.5 54.5z" />
<glyph unicode="&#xe5;" horiz-adv-x="1122" d="M147 328q0 -162 105.5 -246t269.5 -84q101 0 201.5 42t142.5 99v-139h107v707q0 165 -108.5 265.5t-276.5 100.5q-174 0 -387 -127q27 -45 53 -96q73 57 160.5 93t165.5 36q75 0 138 -28t105 -91t43 -151v-168q-5 5 -15 13.5t-44 30.5t-70 39t-92 30.5t-113 13.5 q-176 0 -280.5 -85.5t-104.5 -254.5zM252 324q0 249 299 249q121 0 218 -70.5t97 -146.5v-5v-5v-5v-5v-5v-5v-6v-5v-6q0 -83 -102 -149t-223 -66q-134 0 -211.5 57.5t-77.5 172.5zM377 1368q0 85 55.5 131.5t157.5 46.5q100 0 155.5 -45.5t55.5 -130.5q0 -84 -53 -132 t-158 -48q-106 0 -159.5 47t-53.5 131zM465 1368q0 -113 125 -113q57 0 90 27.5t33 85.5q0 57 -32.5 85t-90.5 28q-125 0 -125 -113z" />
<glyph unicode="&#xe6;" horiz-adv-x="1701" d="M150 299q0 173 104 265.5t293 92.5q56 0 109.5 -15t90 -36t65 -42.5t42.5 -36.5l14 -15v197q-1 88 -43 151.5t-105 92t-138 28.5q-78 0 -164 -28t-154 -72q-5 14 -12 33.5t-14.5 42t-10.5 32.5q2 1 42 16t66.5 23t71.5 20.5t91.5 18.5t91.5 6q120 0 211 -51t137 -145 q54 87 145 135.5t213 48.5q158 0 274 -98.5t116 -245.5q0 -131 -69 -185.5t-214 -54.5h-232q-87 0 -139.5 -47t-52.5 -135q0 -65 43.5 -114t111 -73t146.5 -24q93 0 189 44.5t153 96.5l18 -114l-6 -4q-5 -4 -16.5 -11t-27.5 -15.5t-37.5 -18.5t-45 -19.5t-52.5 -18 t-58 -15.5t-62.5 -11t-66.5 -4q-71 0 -128.5 15.5t-88.5 33.5t-67 33.5t-69 15.5q-64 1 -115 -11t-86.5 -29t-70 -34t-84 -29t-110.5 -12q-53 0 -105 21.5t-95.5 60.5t-71 102t-27.5 138zM254 301q0 -102 58.5 -163.5t136.5 -61.5q75 0 144.5 25t136.5 50t138 25v109 q0 112 -95 195t-220 83q-150 0 -224.5 -69t-74.5 -193zM975 487q14 30 66 56t124 26h254q166 0 166 138q0 109 -79.5 185.5t-209.5 76.5q-143 0 -227.5 -86t-93.5 -234v-162z" />
<glyph unicode="&#xe7;" horiz-adv-x="989" d="M154 416v229q0 187 119.5 309.5t295.5 122.5q98 0 192 -29t144 -65q-4 -12 -20.5 -46.5t-22.5 -53.5q-137 100 -293 100q-123 0 -214 -93t-91 -222v-273q0 -138 85 -227.5t214 -89.5q82 0 170.5 34.5t140.5 84.5q29 -79 35 -103q-6 -4 -16.5 -11.5t-45 -25.5t-71 -32.5 t-91.5 -26t-110 -12.5l-26 -111q105 -30 143.5 -66.5t38.5 -101.5q0 -158 -180 -158q-73 0 -172 21l18 84q92 -25 152 -25q49 0 69.5 19.5t20.5 60.5q0 40 -33.5 60.5t-142.5 50.5l39 170q-160 22 -254 138t-94 288z" />
<glyph unicode="&#xe8;" horiz-adv-x="1116" d="M154 416q0 -195 109.5 -305.5t307.5 -110.5q190 0 326 91q32 22 33 26q-2 71 0 114q-59 -53 -153 -94t-206 -41q-63 0 -117.5 17t-98.5 50.5t-69.5 90.5t-25.5 131v86h445q140 0 209 57t69 185q0 157 -114.5 255.5t-288.5 98.5q-195 0 -310.5 -134.5t-115.5 -336.5v-180z M260 567v33q0 165 86.5 270t235.5 105q137 0 218 -76.5t81 -185.5q0 -78 -40.5 -112t-131.5 -34h-449zM266 1501h140l227 -293v-16h-105z" />
<glyph unicode="&#xe9;" horiz-adv-x="1112" d="M154 416q0 -195 109.5 -305.5t307.5 -110.5q190 0 326 91q32 22 33 26q-2 71 0 114q-59 -53 -153 -94t-206 -41q-63 0 -117.5 17t-98.5 50.5t-69.5 90.5t-25.5 131v86h445q140 0 209 57t69 185q0 157 -114.5 255.5t-288.5 98.5q-195 0 -310.5 -134.5t-115.5 -336.5v-180z M260 567v33q0 165 86.5 270t235.5 105q137 0 218 -76.5t81 -185.5q0 -78 -40.5 -112t-131.5 -34h-449zM516 1192v16l227 293h140l-262 -309h-105z" />
<glyph unicode="&#xea;" horiz-adv-x="1138" d="M154 416q0 -195 109.5 -305.5t307.5 -110.5q190 0 326 91q32 22 33 26q-2 71 0 114q-59 -53 -153 -94t-206 -41q-63 0 -117.5 17t-98.5 50.5t-69.5 90.5t-25.5 131v86h445q140 0 209 57t69 185q0 157 -114.5 255.5t-288.5 98.5q-195 0 -310.5 -134.5t-115.5 -336.5v-180z M260 567v33q0 165 86.5 270t235.5 105q137 0 218 -76.5t81 -185.5q0 -78 -40.5 -112t-131.5 -34h-449zM295 1192v14l205 295h168l204 -295v-14h-102l-188 260l-185 -260h-102z" />
<glyph unicode="&#xeb;" horiz-adv-x="1091" d="M154 416q0 -195 109.5 -305.5t307.5 -110.5q190 0 326 91q32 22 33 26q-2 71 0 114q-59 -53 -153 -94t-206 -41q-63 0 -117.5 17t-98.5 50.5t-69.5 90.5t-25.5 131v86h445q140 0 209 57t69 185q0 157 -114.5 255.5t-288.5 98.5q-195 0 -310.5 -134.5t-115.5 -336.5v-180z M260 567v33q0 165 86.5 270t235.5 105q137 0 218 -76.5t81 -185.5q0 -78 -40.5 -112t-131.5 -34h-449zM328 1335q0 35 20 54.5t55 19.5q32 0 52 -19t20 -55q0 -35 -19 -54t-53 -19q-35 0 -55 18.5t-20 54.5zM696 1335q0 35 19.5 54.5t54.5 19.5q32 0 53 -19.5t21 -54.5 t-20 -54t-54 -19q-35 0 -54.5 18.5t-19.5 54.5z" />
<glyph unicode="&#xec;" horiz-adv-x="583" d="M-18 1501h139l227 -293v-16h-104zM238 0h106v1073l-106 -14v-1059z" />
<glyph unicode="&#xed;" horiz-adv-x="583" d="M236 1192v16l227 293h139l-262 -309h-104zM238 0h106v1073l-106 -14v-1059z" />
<glyph unicode="&#xee;" horiz-adv-x="583" d="M35 1192v14l182 295h150l182 -295v-14h-92l-168 260l-164 -260h-90zM238 0h106v1073l-106 -14v-1059z" />
<glyph unicode="&#xef;" horiz-adv-x="583" d="M59 1335q0 35 19 54.5t53 19.5q32 0 52 -19t20 -55q0 -35 -19.5 -54t-52.5 -19t-52.5 18.5t-19.5 54.5zM238 0h106v1073l-106 -14v-1059zM383 1335q0 35 19 54.5t53 19.5q31 0 50 -19.5t19 -54.5t-18 -54t-51 -19t-52.5 18.5t-19.5 54.5z" />
<glyph unicode="&#xf0;" horiz-adv-x="1165" d="M154 522q0 518 444 518q111 0 203 -32q-61 135 -193 313l-151 -133l-51 57l157 137q-75 99 -123 158l97 53q22 -26 59.5 -73.5t50.5 -63.5l148 129l51 -55l-154 -135q169 -227 244.5 -418t75.5 -410q0 -305 -109 -446t-328 -141q-209 0 -315 140.5t-106 401.5zM274 524 q0 -446 301 -446q170 0 243 117t73 370q0 187 -51 336q-112 39 -238 39q-80 0 -138.5 -21t-102 -68t-65.5 -128.5t-22 -198.5z" />
<glyph unicode="&#xf1;" horiz-adv-x="1263" d="M236 0h106v659q0 74 30 135t77.5 98.5t103.5 58t111 20.5q139 0 218 -81.5t79 -234.5v-655h102v651q0 194 -100.5 306t-276.5 112q-120 0 -206 -47.5t-138 -114.5v162l-106 -25v-1044zM309 1192q24 138 67.5 185.5t115.5 47.5q64 0 124 -43l107 -77q26 -19 41 -24t39 -5 q33 0 57.5 30t38.5 117h92q-18 -97 -45.5 -150t-58.5 -69t-78 -16q-62 0 -123 43l-108 78q-43 30 -68 30q-48 0 -70.5 -33t-38.5 -114h-92z" />
<glyph unicode="&#xf2;" horiz-adv-x="1208" d="M154 473q0 -205 123 -342t333 -137q209 0 330 135.5t121 343.5v125q0 94 -31 180t-86.5 152t-140 105.5t-185.5 39.5q-108 0 -197 -38.5t-146.5 -104.5t-89 -151.5t-31.5 -180.5v-127zM260 475v119q0 171 99.5 278t258.5 107q141 0 238.5 -108t97.5 -275v-121 q0 -171 -89.5 -277t-250.5 -106t-257.5 107.5t-96.5 275.5zM305 1501h139l228 -293v-16h-105z" />
<glyph unicode="&#xf3;" horiz-adv-x="1204" d="M154 473q0 -205 123 -342t333 -137q209 0 330 135.5t121 343.5v125q0 94 -31 180t-86.5 152t-140 105.5t-185.5 39.5q-108 0 -197 -38.5t-146.5 -104.5t-89 -151.5t-31.5 -180.5v-127zM260 475v119q0 171 99.5 278t258.5 107q141 0 238.5 -108t97.5 -275v-121 q0 -171 -89.5 -277t-250.5 -106t-257.5 107.5t-96.5 275.5zM573 1192v16l228 293h139l-262 -309h-105z" />
<glyph unicode="&#xf4;" horiz-adv-x="1200" d="M154 473q0 -205 123 -342t333 -137q209 0 330 135.5t121 343.5v125q0 94 -31 180t-86.5 152t-140 105.5t-185.5 39.5q-108 0 -197 -38.5t-146.5 -104.5t-89 -151.5t-31.5 -180.5v-127zM260 475v119q0 171 99.5 278t258.5 107q141 0 238.5 -108t97.5 -275v-121 q0 -171 -89.5 -277t-250.5 -106t-257.5 107.5t-96.5 275.5zM336 1192v14l205 295h168l204 -295v-14h-102l-188 260l-185 -260h-102z" />
<glyph unicode="&#xf5;" horiz-adv-x="1204" d="M154 473q0 -205 123 -342t333 -137q209 0 330 135.5t121 343.5v125q0 94 -31 180t-86.5 152t-140 105.5t-185.5 39.5q-108 0 -197 -38.5t-146.5 -104.5t-89 -151.5t-31.5 -180.5v-127zM260 475v119q0 171 99.5 278t258.5 107q141 0 238.5 -108t97.5 -275v-121 q0 -171 -89.5 -277t-250.5 -106t-257.5 107.5t-96.5 275.5zM281 1192q25 138 67.5 185.5t114.5 47.5q65 0 125 -43l106 -77q26 -19 41 -24t39 -5q33 0 57.5 30t38.5 117h93q-14 -74 -32 -121.5t-42 -71.5t-49 -33t-60 -9q-62 0 -123 43l-108 78q-43 30 -68 30 q-48 0 -70 -32.5t-38 -114.5h-92z" />
<glyph unicode="&#xf6;" horiz-adv-x="1208" d="M154 473q0 -205 123 -342t333 -137q209 0 330 135.5t121 343.5v125q0 94 -31 180t-86.5 152t-140 105.5t-185.5 39.5q-108 0 -197 -38.5t-146.5 -104.5t-89 -151.5t-31.5 -180.5v-127zM260 475v119q0 171 99.5 278t258.5 107q141 0 238.5 -108t97.5 -275v-121 q0 -171 -89.5 -277t-250.5 -106t-257.5 107.5t-96.5 275.5zM362 1335q0 35 20.5 54.5t55.5 19.5q32 0 52 -19t20 -55q0 -35 -19 -54t-53 -19q-35 0 -55.5 18.5t-20.5 54.5zM731 1335q0 35 19.5 54.5t54.5 19.5q32 0 53 -19.5t21 -54.5t-20 -54t-54 -19q-35 0 -54.5 18.5 t-19.5 54.5z" />
<glyph unicode="&#xf7;" horiz-adv-x="1038" d="M154 514v68h733v-68h-733zM432 178q0 39 24.5 61.5t63.5 22.5q37 0 61.5 -22t24.5 -62q0 -38 -24 -61t-62 -23q-39 0 -63.5 22.5t-24.5 61.5zM432 918q0 38 24.5 60.5t63.5 22.5q37 0 61.5 -21.5t24.5 -61.5t-24 -63.5t-62 -23.5q-39 0 -63.5 24t-24.5 63z" />
<glyph unicode="&#xf8;" horiz-adv-x="1169" d="M145 -109l140 226q-133 127 -133 348v178q0 88 28.5 168.5t82.5 145t140.5 103t194.5 38.5q145 0 250 -78l110 178h64l-133 -213q65 -65 99 -155.5t34 -190.5v-174q0 -97 -27.5 -180.5t-80.5 -147t-136 -99.5t-188 -36q-150 0 -264 80l-117 -191h-64zM256 467 q0 -166 84 -262l455 733q-81 66 -197 66q-159 0 -250.5 -99t-91.5 -268v-170zM379 166q84 -66 215 -66q161 0 242.5 97.5t81.5 269.5v172q0 160 -82 258z" />
<glyph unicode="&#xf9;" horiz-adv-x="1234" d="M233 416q0 -194 100.5 -306t276.5 -112q120 0 206 47.5t138 114.5v-162l107 2v1067h-107v-659q0 -74 -30 -135t-77.5 -98.5t-103 -58t-110.5 -20.5q-139 0 -218 81.5t-79 234.5v655h-103v-651zM358 1501h140l227 -293v-16h-104z" />
<glyph unicode="&#xfa;" horiz-adv-x="1234" d="M233 416q0 -194 100.5 -306t276.5 -112q120 0 206 47.5t138 114.5v-162l107 2v1067h-107v-659q0 -74 -30 -135t-77.5 -98.5t-103 -58t-110.5 -20.5q-139 0 -218 81.5t-79 234.5v655h-103v-651zM543 1192v16l227 293h139l-262 -309h-104z" />
<glyph unicode="&#xfb;" horiz-adv-x="1234" d="M233 416q0 -194 100.5 -306t276.5 -112q120 0 206 47.5t138 114.5v-162l107 2v1067h-107v-659q0 -74 -30 -135t-77.5 -98.5t-103 -58t-110.5 -20.5q-139 0 -218 81.5t-79 234.5v655h-103v-651zM354 1192v14l205 295h168l205 -295v-14h-103l-188 260l-184 -260h-103z" />
<glyph unicode="&#xfc;" horiz-adv-x="1234" d="M233 416q0 -194 100.5 -306t276.5 -112q120 0 206 47.5t138 114.5v-162l107 2v1067h-107v-659q0 -74 -30 -135t-77.5 -98.5t-103 -58t-110.5 -20.5q-139 0 -218 81.5t-79 234.5v655h-103v-651zM391 1335q0 35 20.5 54.5t55.5 19.5q32 0 52 -19t20 -55q0 -35 -19 -54 t-53 -19q-35 0 -55.5 18.5t-20.5 54.5zM760 1335q0 35 19.5 54.5t54.5 19.5q32 0 52.5 -19.5t20.5 -54.5t-19.5 -54t-53.5 -19q-35 0 -54.5 18.5t-19.5 54.5z" />
<glyph unicode="&#xfd;" horiz-adv-x="1052" d="M96 1067l402 -1059q-11 -38 -58 -155q-84 -205 -247 -113l-5 -98q38 -23 91 -23q92 0 152 49.5t112 181.5l422 1217h-115l-301 -920q-289 770 -340 920h-113zM481 1192v16l228 293h139l-262 -309h-105z" />
<glyph unicode="&#xfe;" horiz-adv-x="1216" d="M236 -408v1960l102 31v-625q56 64 136.5 99t174.5 35q180 0 298 -116t118 -294v-320q0 -32 -6 -70.5t-26.5 -92t-53 -95.5t-92 -72t-137.5 -30q-69 0 -146 27.5t-121 27.5q-56 0 -100.5 -40.5t-44.5 -114.5v-279q-83 -25 -102 -31zM340 86l6 6q5 7 17.5 17t28.5 20 t40.5 17.5t50.5 7.5q49 0 130 -27t143 -27q90 0 147.5 71.5t57.5 195.5v313q0 136 -83 224.5t-229 88.5q-139 0 -224 -89t-85 -226v-592z" />
<glyph unicode="&#xff;" horiz-adv-x="1052" d="M70 1067l401 -1059q-25 -86 -53 -155q-31 -77 -63 -109.5t-76 -33.5t-107 22l-10 -101q11 -1 41.5 -6.5t44.5 -5.5q96 0 156 49.5t112 181.5l422 1217h-115l-301 -932q-289 782 -340 932h-112zM285 1335q0 35 20 54.5t55 19.5q32 0 52 -19t20 -55q0 -35 -19 -54t-53 -19 q-35 0 -55 18.5t-20 54.5zM653 1335q0 35 19.5 54.5t54.5 19.5q32 0 53 -19.5t21 -54.5t-20 -54t-54 -19q-35 0 -54.5 18.5t-19.5 54.5z" />
<glyph unicode="&#x152;" horiz-adv-x="2131" d="M164 614v299q0 298 145.5 468.5t392.5 170.5q138 0 246.5 -55t179.5 -160v199h844v-104h-733v-529q6 -51 34.5 -70.5t100.5 -19.5h531v-102h-553q-58 -1 -83 -21t-30 -65v-523h733l15 -106h-861v186q-143 -202 -417 -202q-255 0 -400 167t-145 467zM276 614 q0 -266 114 -399t321 -133q377 0 415 442q0 76 2 391q0 259 -115 396t-313 137q-197 0 -309 -134.5t-112 -398.5q0 -22 -1.5 -71.5t-1.5 -229.5z" />
<glyph unicode="&#x153;" horiz-adv-x="1863" d="M154 440v178q0 88 28.5 169t82.5 146t140.5 103.5t194.5 38.5q129 0 224 -61.5t147 -165.5q53 99 149 156t226 57q103 0 192.5 -43.5t144 -123t54.5 -177.5q0 -131 -70 -185.5t-215 -54.5h-229q-89 0 -141 -46.5t-52 -135.5q0 -65 43.5 -114t111 -73t146.5 -24 q92 0 188.5 44.5t153.5 96.5l17 -114l-36 -23q-159 -90 -323 -94h-14q-115 0 -210 48t-144 140q-112 -202 -371 -202q-105 0 -189.5 36.5t-138 99.5t-82 145.5t-28.5 178.5zM258 442q0 -168 89 -267t249 -99q161 0 242.5 97.5t81.5 268.5v172q0 167 -89.5 267t-230.5 100 q-159 0 -250.5 -99t-91.5 -270v-170zM1024 485q13 30 66 57t127 27h251q168 0 168 138q0 109 -79.5 185.5t-210.5 76.5q-150 0 -236 -96.5t-86 -258.5v-129z" />
<glyph unicode="&#x178;" horiz-adv-x="1095" d="M45 1538h123q65 -141 200.5 -450t200.5 -445q40 94 176 416t207 479h121q-155 -333 -395 -905q-53 -115 -53 -201v-432h-111v432q0 85 -51 197q-301 663 -418 909zM317 1651q0 33 19 51t53 18q32 0 52 -17.5t20 -51.5t-19 -53t-53 -19q-33 0 -52.5 18.5t-19.5 53.5z M682 1651q0 69 74 69q31 0 50 -17.5t19 -51.5t-18.5 -53t-52.5 -19q-33 0 -52.5 18.5t-19.5 53.5z" />
<glyph unicode="&#x2c6;" d="M221 1231v14l205 295h168l205 -295v-14h-103l-188 260l-184 -260h-103z" />
<glyph unicode="&#x2dc;" d="M170 1233q25 138 67.5 185.5t114.5 47.5q65 0 125 -43l107 -77q26 -19 41 -24t39 -5q33 0 57.5 30t38.5 117h92q-18 -97 -45.5 -150t-58.5 -69t-78 -16q-62 0 -123 43l-109 78q-27 19 -39 24.5t-28 5.5q-48 0 -70.5 -33t-38.5 -114h-92z" />
<glyph unicode="&#x2000;" horiz-adv-x="979" />
<glyph unicode="&#x2001;" horiz-adv-x="1958" />
<glyph unicode="&#x2002;" horiz-adv-x="979" />
<glyph unicode="&#x2003;" horiz-adv-x="1958" />
<glyph unicode="&#x2004;" horiz-adv-x="652" />
<glyph unicode="&#x2005;" horiz-adv-x="489" />
<glyph unicode="&#x2006;" horiz-adv-x="326" />
<glyph unicode="&#x2007;" horiz-adv-x="326" />
<glyph unicode="&#x2008;" horiz-adv-x="244" />
<glyph unicode="&#x2009;" horiz-adv-x="391" />
<glyph unicode="&#x200a;" horiz-adv-x="108" />
<glyph unicode="&#x2010;" horiz-adv-x="512" d="M49 494v100h414v-100h-414z" />
<glyph unicode="&#x2011;" horiz-adv-x="512" d="M49 494v100h414v-100h-414z" />
<glyph unicode="&#x2012;" horiz-adv-x="512" d="M49 494v100h414v-100h-414z" />
<glyph unicode="&#x2013;" d="M66 494v100h892v-100h-892z" />
<glyph unicode="&#x2014;" horiz-adv-x="2048" d="M66 494v100h1916v-100h-1916z" />
<glyph unicode="&#x2018;" horiz-adv-x="452" d="M100 1239q0 97 39.5 166.5t153.5 138.5l59 -71q-94 -54 -121.5 -97.5t-27.5 -115.5v-21h39q63 0 63 -65q0 -38 -25 -59t-63 -21q-51 0 -84 36.5t-33 108.5z" />
<glyph unicode="&#x2019;" horiz-adv-x="452" d="M100 1165q94 54 122 97.5t28 115.5v21h-39q-31 0 -47.5 17t-16.5 48q0 38 25 59t64 21q51 0 83.5 -36t32.5 -109q0 -97 -39 -166.5t-153 -138.5z" />
<glyph unicode="&#x201a;" horiz-adv-x="452" d="M100 -223q94 54 122 97.5t28 115.5v20h-39q-31 0 -47.5 17.5t-16.5 48.5q0 38 25 59t64 21q51 0 83.5 -36.5t32.5 -109.5q0 -97 -39 -166.5t-153 -138.5z" />
<glyph unicode="&#x201c;" horiz-adv-x="749" d="M100 1237q0 97 39.5 166.5t153.5 138.5l59 -72q-94 -54 -121.5 -97.5t-27.5 -115.5v-20h39q30 0 46.5 -17.5t16.5 -48.5q0 -38 -24.5 -58.5t-63.5 -20.5q-51 0 -84 36.5t-33 108.5zM397 1237q0 97 39.5 166.5t153.5 138.5l59 -72q-94 -54 -121.5 -97.5t-27.5 -115.5v-20 h39q30 0 46.5 -17.5t16.5 -48.5q0 -38 -24.5 -58.5t-63.5 -20.5q-51 0 -84 36.5t-33 108.5z" />
<glyph unicode="&#x201d;" horiz-adv-x="749" d="M100 1165q94 54 122 97.5t28 115.5v21h-39q-31 0 -47.5 17t-16.5 48q0 38 25 59t64 21q51 0 83.5 -36t32.5 -109q0 -97 -39 -166.5t-153 -138.5zM397 1165q94 54 122 97.5t28 115.5v21h-39q-31 0 -47.5 17t-16.5 48q0 38 25 59t63 21q51 0 84 -36.5t33 -108.5 q0 -97 -39 -166.5t-153 -138.5z" />
<glyph unicode="&#x201e;" horiz-adv-x="749" d="M100 -223q94 54 122 97.5t28 115.5v20h-39q-31 0 -47.5 17.5t-16.5 48.5q0 38 25 59t64 21q51 0 83.5 -36.5t32.5 -109.5q0 -97 -39 -166.5t-153 -138.5zM397 -223q94 54 122 97.5t28 115.5v20h-39q-31 0 -47.5 17.5t-16.5 48.5q0 38 25 59t63 21q51 0 84 -37t33 -109 q0 -97 -39 -166.5t-153 -138.5z" />
<glyph unicode="&#x2022;" d="M262 293v498h500v-498h-500z" />
<glyph unicode="&#x2026;" horiz-adv-x="1351" d="M178 74q0 38 24.5 61t61.5 23t62.5 -22t25.5 -62q0 -39 -24.5 -62.5t-63.5 -23.5q-37 0 -61.5 23.5t-24.5 62.5zM588 74q0 38 24.5 61t61.5 23t62.5 -22t25.5 -62q0 -39 -24.5 -62.5t-63.5 -23.5q-37 0 -61.5 23.5t-24.5 62.5zM999 74q0 38 24.5 61t61.5 23t63 -22.5 t26 -61.5t-25 -62.5t-64 -23.5q-37 0 -61.5 23.5t-24.5 62.5z" />
<glyph unicode="&#x202f;" horiz-adv-x="391" />
<glyph unicode="&#x2039;" horiz-adv-x="641" d="M119 557l301 473h102l-268 -473l268 -473h-102z" />
<glyph unicode="&#x203a;" horiz-adv-x="641" d="M119 84l270 473l-270 473h102l301 -473l-301 -473h-102z" />
<glyph unicode="&#x205f;" horiz-adv-x="489" />
<glyph unicode="&#x20ac;" horiz-adv-x="1226" d="M106 528v84h119v285h-119v84h121q5 152 75.5 279.5t186.5 202t252 79.5q243 8 392 -127l-70 -88q-69 66 -141.5 90.5t-169.5 24.5q-159 0 -282 -132t-132 -329h629l-15 -84h-614v-285h629l-15 -84h-612q11 -196 119.5 -322.5t281.5 -125.5q112 0 184.5 28t161.5 103 l62 -98q-81 -67 -177 -103.5t-235 -36.5q-220 0 -360.5 154t-149.5 401h-121z" />
<glyph unicode="&#x2122;" horiz-adv-x="1572" d="M88 1448h164q56 0 71 -12t15 -54v-690h57v688q0 43 15 55.5t65 12.5h180v53h-168q-29 0 -45.5 -1t-37 -7.5t-35.5 -19.5q-11 9 -22 14.5t-26 8t-22.5 3.5t-29 1.5t-27.5 0.5h-154v-53zM762 692v811h92l250 -633l250 633h88l2 -811h-58v742l-253 -635h-62l-252 635v-742 h-57z" />
<glyph unicode="&#xe000;" horiz-adv-x="1064" d="M0 0v1065h1065v-1065h-1065z" />
<glyph unicode="&#xfb01;" horiz-adv-x="1226" d="M94 969v96h131v109q0 175 95.5 269.5t248.5 96.5q79 0 158 -18l-2 -103q-80 23 -150 23t-126 -24.5t-88.5 -82.5t-32.5 -145v-125h565l104 10v-1075h-106v969h-561v-969h-105v969h-131zM864 1393q0 31 20.5 51t51.5 20h14q31 0 51.5 -20t20.5 -51q0 -28 -21 -50t-51 -22 h-14q-30 0 -51 21t-21 51z" />
<glyph unicode="&#xfb02;" horiz-adv-x="1294" d="M88 969v96h139v129q0 176 96 271.5t248 95.5q111 0 219.5 -27t157.5 -49l107 14v-1499h-107v1382q-64 28 -174.5 54t-195.5 26q-112 2 -180 -61t-68 -191v-145h391v-96h-389v-969h-105v969h-139z" />
</font>
</defs>
</svg>
